<?xml version="1.0" standalone="no"?>
<svg viewBox="0 0 200 200" xmlns="http://www.w3.org/2000/svg">
  <path fill="#9EF0F0" d="M15.5,-27.7C23.2,-22.5,34.4,-24.4,36.3,-21C38.2,-17.6,30.7,-8.8,25.9,-2.7C21.2,3.3,19.2,6.6,20,14.8C20.9,23,24.6,36,21.8,37C18.9,38,9.5,26.9,2.1,23.3C-5.3,19.7,-10.6,23.6,-18.7,25.7C-26.9,27.7,-37.9,28,-50.9,23.4C-64,18.8,-79.1,9.4,-81.7,-1.5C-84.3,-12.4,-74.3,-24.8,-66.7,-38.8C-59.1,-52.7,-53.7,-68.2,-43,-71.7C-32.2,-75.1,-16.1,-66.5,-6.1,-55.9C4,-45.4,7.9,-33,15.5,-27.7Z" transform="translate(100 100)" />
</svg>
