<svg xmlns="http://www.w3.org/2000/svg" xmlns:xlink="http://www.w3.org/1999/xlink" xmlns:fi="http://pattern.flaticon.com/" x="0" y="0" width="700" height="350" viewBox="0 0 1225 612.5"><rect x="0px" y="0px" width="100%" height="100%" opacity="1" fill="#ffffff"/><defs><g transform="matrix(0.9375 0 0 0.9375 56.99999965667723 196.0000005722046)" id="L1_0"><path d="m63.707 51.952-9.978-9.977a1 1 0 0 1 .207-1.573l7.548-4.37a3.089 3.089 0 0 0 -.687-5.64l-11.519-3.344a1 1 0 0 0 -.556 1.921l11.517 3.344a1.089 1.089 0 0 1 .243 1.989l-7.548 4.37a3 3 0 0 0 -.619 4.717l9.271 9.27-8.927 8.927-9.27-9.27a3 3 0 0 0 -4.717.618l-4.372 7.548a1.09 1.09 0 0 1 -1.99-.242l-10.87-37.449a1.09 1.09 0 0 1 1.351-1.35l21.931 6.367a1 1 0 0 0 .556-1.921l-21.929-6.367a3.089 3.089 0 0 0 -3.828 3.828l10.872 37.452a3.088 3.088 0 0 0 5.639.687l4.37-7.548a1 1 0 0 1 1.573-.206l9.977 9.977a1 1 0 0 0 1.414 0l10.341-10.344a1 1 0 0 0 0-1.414z"/><path d="m19 8a1 1 0 0 0 1-1v-6a1 1 0 0 0 -2 0v6a1 1 0 0 0 1 1z"/><path d="m19 32a1 1 0 0 0 -1 1v4a1 1 0 0 0 2 0v-4a1 1 0 0 0 -1-1z"/><path d="m32 19a1 1 0 0 0 1 1h4a1 1 0 0 0 0-2h-4a1 1 0 0 0 -1 1z"/><path d="m8 19a1 1 0 0 0 -1-1h-6a1 1 0 0 0 0 2h6a1 1 0 0 0 1-1z"/><path d="m27.485 11.515a1 1 0 0 0 .707-.293l4.243-4.243a1 1 0 1 0 -1.414-1.414l-4.243 4.243a1 1 0 0 0 .707 1.707z"/><path d="m9.808 26.778-4.243 4.243a1 1 0 1 0 1.414 1.414l4.243-4.243a1 1 0 1 0 -1.414-1.414z"/><path d="m6.979 5.565a1 1 0 0 0 -1.414 1.414l4.243 4.243a1 1 0 1 0 1.414-1.414z"/></g><g transform="matrix(0.1171875 0 0 0.1171875 261 242)" id="L1_1"><path d="M476,48H36A28.031,28.031,0,0,0,8,76V372a28.031,28.031,0,0,0,28,28H198.24l-4.8,24H160a8,8,0,0,0-8,8v24a8,8,0,0,0,8,8H352a8,8,0,0,0,8-8V432a8,8,0,0,0-8-8H318.56l-4.8-24H476a28.031,28.031,0,0,0,28-28V76A28.031,28.031,0,0,0,476,48ZM344,440v8H168v-8ZM209.76,424l4.8-24h82.88l4.8,24ZM488,372a12.01,12.01,0,0,1-12,12H36a12.01,12.01,0,0,1-12-12V352H488Zm0-36H24V76A12.01,12.01,0,0,1,36,64H476a12.01,12.01,0,0,1,12,12Z"/><path d="M264,360H248a8,8,0,0,0,0,16h16a8,8,0,0,0,0-16Z"/></g><g transform="matrix(0.1171875 0 0 0.1171875 148 322)" id="L1_2"><path d="M472,128H461.61a72,72,0,1,0-107.22,0H256V48a8,8,0,0,0-8-8H216a8,8,0,0,0-8,8v80h-8V16a8,8,0,0,0-8-8H160a8,8,0,0,0-8,8V128h-8V72a8,8,0,0,0-8-8H104a8,8,0,0,0-8,8v56H40A32.036,32.036,0,0,0,8,160V400a32.036,32.036,0,0,0,32,32H204.9l-10.67,32H168a8,8,0,0,0-8,8v16H80a8,8,0,0,0,0,16H432a8,8,0,0,0,0-16H352V472a8,8,0,0,0-8-8H317.77L307.1,432H472a32.036,32.036,0,0,0,32-32V160A32.036,32.036,0,0,0,472,128ZM416,24.58A56.11,56.11,0,0,1,463.42,72H416ZM411.31,88h52.11a55.962,55.962,0,0,1-88.94,36.83ZM352,80a56.086,56.086,0,0,1,48-55.42V76.69l-36.83,36.83A55.708,55.708,0,0,1,352,80ZM224,56h16V208H224Zm-24,88h8v64h-8ZM168,24h16V208H168ZM144,144h8v64h-8ZM112,80h16V208H112ZM336,480v8H176v-8ZM211.1,464l10.67-32h68.46l10.67,32ZM488,400a16.021,16.021,0,0,1-16,16H40a16.021,16.021,0,0,1-16-16V384H488Zm0-32H24V160a16.021,16.021,0,0,1,16-16H96v64H88V160a8,8,0,0,0-8-8H48a8,8,0,0,0-8,8v56a8,8,0,0,0,8,8H304a8,8,0,0,0,8-8V160a8,8,0,0,0-8-8H272a8,8,0,0,0-8,8v48h-8V144H375.08a71.733,71.733,0,0,0,65.84,0H472a16.021,16.021,0,0,1,16,16ZM72,168v40H56V168Zm208,40V168h16v40Z"/><path d="M96,392H48a8,8,0,0,0,0,16H96a8,8,0,0,0,0-16Z"/><path d="M128,392h-8a8,8,0,0,0,0,16h8a8,8,0,0,0,0-16Z"/><path d="M344,208a7.974,7.974,0,0,0,5.657-2.343L379.313,176H448a8,8,0,0,0,0-16H376a8,8,0,0,0-5.657,2.343l-32,32A8,8,0,0,0,344,208Z"/><path d="M448,296a24,24,0,0,0-20.75,11.97L343.5,259.11a24,24,0,0,0-47.11.6l-84.28,63.21a23.979,23.979,0,0,0-41.48,2.18l-83.3-34.71a24.01,24.01,0,1,0-1.96,16.51l83.3,34.71a23.995,23.995,0,0,0,46.94-1.32l84.28-63.21a23.973,23.973,0,0,0,40.86-1.05l83.75,48.86A24,24,0,1,0,448,296Zm-376,.04a8.02,8.02,0,1,1,0-.04ZM192,344a8.011,8.011,0,0,1-8-8v-.04a8,8,0,1,1,8,8.04Zm128-72a8,8,0,1,1,8-8A8.011,8.011,0,0,1,320,272Zm128,56a8,8,0,1,1,8-8A8.011,8.011,0,0,1,448,328Z"/><path d="M384,344H328a8,8,0,0,0,0,16h56a8,8,0,0,0,0-16Z"/><path d="M384,320H360a8,8,0,0,0,0,16h24a8,8,0,0,0,0-16Z"/><path d="M48,248h88a8,8,0,0,0,0-16H48a8,8,0,0,0,0,16Z"/><path d="M160,248h8a8,8,0,0,0,0-16h-8a8,8,0,0,0,0,16Z"/></g><g transform="matrix(0.1171875 0 0 0.1171875 -1 267)" id="L1_3"><path d="M491.165,400.08H20.835c-7.362,0-13.329-5.968-13.329-13.329V69.28  c0-7.362,5.968-13.329,13.329-13.329h470.33c7.362,0,13.329,5.968,13.329,13.329v317.47  C504.494,394.112,498.526,400.08,491.165,400.08z" fill="#e0e0d1"/><path d="M491.165,55.951h-31.318v311.785c0,7.362-5.968,13.33-13.329,13.33H7.506v5.685  c0,7.362,5.968,13.33,13.329,13.33h470.33c7.362,0,13.329-5.968,13.329-13.33V69.28C504.494,61.919,498.526,55.951,491.165,55.951z" fill="#cecec0"/><path d="M466.723,326.73c0.006,0,0.012,0,0.018,0c0.974,0.001,1.77-0.773,1.77-1.746V131.048  c0-0.974-0.796-1.747-1.77-1.746c-0.006,0-0.012,0-0.018,0c-19.268,0-34.988-15.186-35.846-34.242  c-0.042-0.923-0.817-1.642-1.741-1.642H81.076c-0.924,0-1.699,0.719-1.741,1.642c-0.833,18.512-15.693,33.371-34.205,34.205  c-0.923,0.042-1.642,0.817-1.642,1.741v194.021c0,0.924,0.719,1.699,1.642,1.741c18.512,0.833,33.371,15.693,34.205,34.205  c0.042,0.923,0.817,1.642,1.741,1.642h348.06c0.924,0,1.699-0.719,1.741-1.642C431.735,341.915,447.456,326.73,466.723,326.73z" fill="#ffffff"/><path d="M466.741,129.301c-0.006,0-0.012,0-0.018,0c-19.267,0-34.988-15.186-35.846-34.242  c-0.042-0.923-0.817-1.642-1.741-1.642h-45.034c0.924,0,1.699,0.719,1.741,1.642c0.858,19.056,16.578,34.242,35.846,34.242  c0.006,0,0.012,0,0.018,0c0.974,0,1.769,0.773,1.769,1.746v193.936c0,0.974-0.796,1.747-1.769,1.746c-0.006,0-0.012,0-0.018,0  c-19.267,0-34.988,15.186-35.846,34.242c-0.042,0.923-0.817,1.642-1.741,1.642h45.034c0.924,0,1.699-0.719,1.741-1.642  c0.858-19.056,16.578-34.242,35.846-34.242c0.006,0,0.012,0,0.018,0c0.974,0,1.769-0.773,1.769-1.746V131.048  C468.511,130.074,467.715,129.301,466.741,129.301z" fill="#f2f2f2"/><path d="M372.948,455.371l-13.713-22.511c-0.298-0.489-0.862-0.75-1.428-0.659l-24.808,3.989  c-1.122,0.18-1.986-0.973-1.496-1.999l37.044-77.625l43.959,20.978l-37.08,77.701C374.943,456.256,373.531,456.328,372.948,455.371z  " fill="#61aff6"/><path d="M431.701,455.371l13.713-22.511c0.298-0.489,0.862-0.75,1.428-0.659l24.808,3.989  c1.122,0.18,1.986-0.973,1.496-1.999l-37.044-77.625l-43.959,20.978l37.08,77.701C429.707,456.256,431.118,456.328,431.701,455.371z  " fill="#49a0e8"/><path d="M413.466,266.459L413.466,266.459c3.761,2.674,8.359,3.906,12.953,3.471l0,0  c8.148-0.771,15.891,3.699,19.297,11.141l0,0c1.921,4.196,5.286,7.562,9.482,9.482l0,0c7.442,3.406,11.912,11.149,11.141,19.297l0,0  c-0.435,4.594,0.797,9.192,3.471,12.953l0,0c4.742,6.671,4.742,15.612,0,22.283l0,0c-2.674,3.761-3.906,8.359-3.471,12.953l0,0  c0.771,8.148-3.699,15.891-11.141,19.297l0,0c-4.196,1.921-7.562,5.286-9.482,9.482l0,0c-3.406,7.442-11.149,11.912-19.297,11.141  l0,0c-4.594-0.435-9.192,0.797-12.953,3.471l0,0c-6.671,4.742-15.612,4.742-22.283,0l0,0c-3.761-2.674-8.359-3.906-12.953-3.471l0,0  c-8.148,0.771-15.891-3.699-19.297-11.141l0,0c-1.921-4.196-5.286-7.562-9.482-9.482l0,0c-7.442-3.406-11.912-11.149-11.141-19.297  l0,0c0.435-4.594-0.797-9.192-3.471-12.953l0,0c-4.742-6.671-4.742-15.612,0-22.283l0,0c2.674-3.761,3.906-8.359,3.471-12.953l0,0  c-0.771-8.148,3.699-15.891,11.141-19.297l0,0c4.196-1.921,7.562-5.286,9.482-9.482l0,0c3.406-7.442,11.149-11.912,19.297-11.141  l0,0c4.594,0.435,9.192-0.797,12.953-3.471l0,0C397.854,261.717,406.795,261.717,413.466,266.459z" fill="#ff4c4c"/><path d="M469.811,322.803c-2.674-3.761-3.906-8.359-3.471-12.953c0.771-8.148-3.699-15.891-11.141-19.297   c-4.196-1.921-7.562-5.286-9.482-9.482l0,0c-3.406-7.442-11.15-11.912-19.297-11.141c-4.594,0.435-9.192-0.797-12.953-3.471   c-6.671-4.742-15.612-4.742-22.283,0l0,0c-2.7,1.919-5.834,3.081-9.085,3.432c7.883-0.452,15.277,3.957,18.584,11.18l0,0   c1.92,4.196,5.286,7.562,9.482,9.482c7.442,3.406,11.912,11.149,11.141,19.297c-0.435,4.594,0.797,9.192,3.471,12.953   c4.742,6.671,4.742,15.612,0,22.283c-2.674,3.761-3.906,8.359-3.471,12.953c0.771,8.148-3.699,15.891-11.141,19.297   c-4.196,1.921-7.562,5.286-9.482,9.482l0,0c-3.306,7.224-10.701,11.633-18.584,11.181c3.251,0.35,6.385,1.512,9.085,3.432l0,0   c6.671,4.742,15.612,4.742,22.283,0l0,0c3.761-2.674,8.359-3.906,12.953-3.471c8.148,0.771,15.891-3.699,19.297-11.141l0,0   c1.92-4.196,5.286-7.562,9.482-9.482c7.442-3.406,11.912-11.149,11.141-19.297c-0.435-4.594,0.797-9.192,3.471-12.953   C474.553,338.415,474.553,329.474,469.811,322.803z" fill="#ea2828"/><circle cx="401" cy="333" r="39" fill="#ffb125"/><path d="M401.777,294.817c-9.265,0-17.772,3.227-24.475,8.61c8.931,7.171,14.653,18.174,14.653,30.518  c0,12.345-5.722,23.347-14.653,30.519c6.703,5.382,15.21,8.61,24.475,8.61c21.61,0,39.128-17.518,39.128-39.128  C440.905,312.335,423.386,294.817,401.777,294.817z" fill="#ff901d"/><path d="M401.777,137.141H110.223c-4.146,0-7.506,3.36-7.506,7.506s3.36,7.506,7.506,7.506h291.554c4.146,0,7.506-3.36,7.506-7.506  S405.923,137.141,401.777,137.141z"/><path d="M401.777,218.869H110.223c-4.146,0-7.506,3.36-7.506,7.506c0,4.145,3.36,7.506,7.506,7.506h291.554  c4.146,0,7.506-3.36,7.506-7.506S405.923,218.869,401.777,218.869z"/><path d="M306.193,271.909H205.807c-4.146,0-7.506,3.36-7.506,7.506c0,4.145,3.36,7.506,7.506,7.506h100.386  c4.146,0,7.506-3.36,7.506-7.506S310.339,271.909,306.193,271.909z"/><path d="M401.777,177.838H184.303c-4.146,0-7.506,3.36-7.506,7.506c0,4.145,3.36,7.506,7.506,7.506h217.474  c4.146,0,7.506-3.36,7.506-7.506S405.923,177.838,401.777,177.838z"/><path d="M110.223,192.849h39.158c4.146,0,7.506-3.36,7.506-7.506c0-4.145-3.36-7.506-7.506-7.506h-39.158  c-4.146,0-7.506,3.36-7.506,7.506C102.717,189.489,106.077,192.849,110.223,192.849z"/><path d="M466.729,121.796c-0.002,0-0.003,0-0.005,0c-15.213,0-27.664-11.892-28.349-27.078c-0.225-4.938-4.283-8.805-9.238-8.805  H81.077c-4.956,0-9.015,3.868-9.239,8.81c-0.653,14.511-12.532,26.391-27.044,27.044c-4.94,0.222-8.809,4.281-8.809,9.239v194.021  c0,4.958,3.869,9.016,8.809,9.238c14.512,0.654,26.391,12.533,27.044,27.049c0.225,4.938,4.284,8.805,9.239,8.805h221.577  c4.146,0,7.506-3.36,7.506-7.506c0-4.145-3.36-7.506-7.506-7.506H86.239c-3.103-18.079-17.164-32.14-35.243-35.244V136.167  c18.079-3.103,32.14-17.167,35.243-35.243h337.739c3.23,18.65,18.245,33.046,37.026,35.51v127.469c0,4.145,3.36,7.506,7.506,7.506  c4.146,0,7.506-3.36,7.506-7.506V131.048c0-2.499-0.982-4.841-2.765-6.593C471.505,122.74,469.194,121.796,466.729,121.796z"/><path d="M491.165,48.445H20.835C9.347,48.445,0,57.792,0,69.28v317.47c0,11.489,9.347,20.835,20.835,20.835h315.048l-11.154,23.373  c-1.433,3.001-1.084,6.52,0.908,9.182c1.993,2.663,5.272,3.986,8.553,3.461l20.766-3.338l11.583,19.013  c1.624,2.668,4.51,4.278,7.611,4.278c0.151,0,0.303-0.004,0.455-0.012c3.272-0.166,6.181-2.106,7.594-5.064l20.126-42.173  l20.124,42.17c1.41,2.958,4.319,4.9,7.592,5.068c0.153,0.008,0.307,0.012,0.459,0.012c3.101,0,5.987-1.61,7.611-4.277l11.583-19.013  l20.766,3.339c3.291,0.526,6.564-0.801,8.555-3.465c1.992-2.664,2.338-6.182,0.905-9.178l-11.154-23.373h22.399  c11.488,0,20.835-9.346,20.835-20.835V69.28C512,57.792,502.653,48.445,491.165,48.445z M373.501,441.85l-7.857-12.895  c-1.892-3.106-5.434-4.74-9.028-4.163l-13.334,2.144l14.046-29.432c5.536,5.649,13.423,8.701,21.61,7.93  c2.799-0.268,5.605,0.486,7.898,2.115c0.756,0.538,1.541,1.015,2.336,1.465L373.501,441.85z M404.115,397.342  c-0.023,0.003-0.046,0.005-0.07,0.009c-1.138,0.168-2.295,0.168-3.433,0.001c-0.029-0.004-0.058-0.007-0.086-0.011  c-1.763-0.273-3.477-0.948-4.995-2.027c-4.54-3.228-9.961-4.944-15.491-4.944c-0.838,0-1.678,0.04-2.518,0.119  c-4.969,0.469-9.69-2.26-11.764-6.792c-0.921-2.012-2.096-3.874-3.46-5.577c-0.06-0.085-0.126-0.165-0.189-0.247  c-0.076-0.092-0.147-0.187-0.223-0.278c-0.087-0.102-0.178-0.199-0.271-0.296c-2.482-2.856-5.549-5.188-9.042-6.786  c-4.533-2.074-7.262-6.802-6.792-11.765c0.604-6.386-1.109-12.782-4.825-18.009c-2.889-4.063-2.889-9.522-0.001-13.585  c3.717-5.227,5.43-11.623,4.826-18.009c-0.47-4.963,2.26-9.691,6.792-11.765c5.833-2.669,10.515-7.351,13.184-13.184  c2.075-4.533,6.813-7.263,11.765-6.792c6.393,0.603,12.783-1.11,18.01-4.826c4.064-2.888,9.523-2.888,13.585,0  c5.228,3.716,11.619,5.425,18.01,4.826c4.967-0.472,9.692,2.26,11.766,6.792c2.669,5.833,7.351,10.515,13.183,13.183  c4.533,2.075,7.263,6.803,6.793,11.765c-0.604,6.387,1.109,12.783,4.825,18.009c2.889,4.063,2.889,9.522,0,13.585  c-3.716,5.228-5.429,11.624-4.825,18.009c0.47,4.963-2.26,9.691-6.794,11.766c-3.485,1.595-6.545,3.921-9.024,6.768  c-0.102,0.106-0.202,0.213-0.296,0.324c-0.065,0.078-0.126,0.159-0.191,0.238c-0.075,0.096-0.151,0.19-0.221,0.289  c-1.36,1.7-2.532,3.558-3.45,5.565c-2.075,4.532-6.803,7.263-11.766,6.792c-6.38-0.601-12.78,1.109-18.01,4.825  C407.597,396.394,405.881,397.07,404.115,397.342z M448.033,424.791c-3.595-0.575-7.135,1.058-9.028,4.165l-7.856,12.895  l-15.671-32.837c0.795-0.45,1.579-0.927,2.336-1.465c2.294-1.63,5.102-2.386,7.898-2.116c8.19,0.772,16.075-2.28,21.611-7.929  l14.045,29.431L448.033,424.791z M496.989,386.751c0,3.211-2.612,5.824-5.824,5.824h-29.563l-3.87-8.11  c0.195-0.103,0.389-0.211,0.591-0.303c10.336-4.731,16.561-15.513,15.49-26.829c-0.265-2.8,0.486-5.605,2.116-7.898  c6.586-9.265,6.586-21.715-0.001-30.98c-1.629-2.292-2.38-5.096-2.115-7.897c1.071-11.316-5.154-22.098-15.491-26.829  c-2.557-1.171-4.61-3.224-5.781-5.781c-4.73-10.337-15.517-16.56-26.83-15.49c-2.802,0.267-5.605-0.486-7.897-2.116  c-9.265-6.586-21.716-6.587-30.98,0c-2.293,1.63-5.104,2.383-7.897,2.115c-11.33-1.066-22.1,5.154-26.829,15.49  c-1.171,2.558-3.224,4.61-5.782,5.781c-10.336,4.731-16.561,15.512-15.49,26.829c0.265,2.801-0.486,5.605-2.116,7.898  c-6.586,9.265-6.586,21.715,0,30.979c1.63,2.292,2.381,5.097,2.116,7.898c-1.071,11.317,5.154,22.099,15.49,26.829  c0.202,0.092,0.395,0.2,0.59,0.303l-3.87,8.111H20.835c-3.211,0-5.824-2.612-5.824-5.824V69.28c0-3.211,2.612-5.824,5.824-5.824  h470.33c3.211,0,5.824,2.613,5.824,5.824L496.989,386.751L496.989,386.751z"/><path d="M448.41,333.945c0-25.714-20.919-46.633-46.633-46.633s-46.634,20.92-46.634,46.633c0,25.714,20.92,46.634,46.634,46.634  S448.41,359.658,448.41,333.945z M401.777,365.567c-17.437,0-31.623-14.186-31.623-31.623c0-17.436,14.186-31.622,31.623-31.622  c17.436,0,31.622,14.186,31.622,31.622C433.399,351.381,419.213,365.567,401.777,365.567z"/></g><g transform="matrix(0.124447762966156 0 0 0.124447762966156 274 318.0000031476534)" id="L1_4"><path d="M475.266,126.603c-0.001,0-0.001,0-0.002,0l-0.016-0.016l-31.12-4.44c-4.374-0.623-7.415-4.674-6.792-9.048    c0.299-2.102,1.422-3.998,3.12-5.272l25.152-18.864c3.535-2.651,4.251-7.665,1.6-11.2l-28.8-38.4    c-2.651-3.535-7.665-4.251-11.2-1.6l-25.144,18.864c-3.52,2.671-8.538,1.983-11.209-1.537c-1.297-1.709-1.853-3.868-1.543-5.991    l4.448-31.12c0.627-4.374-2.41-8.427-6.783-9.055c-0.003,0-0.006-0.001-0.009-0.001L339.48,2.139    c-4.373-0.628-8.428,2.408-9.056,6.782c0,0.001,0,0.001,0,0.002l-4.448,31.12c-0.623,4.374-4.674,7.415-9.048,6.792    c-2.102-0.299-3.998-1.422-5.272-3.12L292.8,18.563c-2.651-3.535-7.665-4.251-11.2-1.6l-24.04,18.04    c-10.876-1.156-21.844-1.156-32.72,0C153.614,43.144,97.759,99.946,90.816,171.299c-0.216,2.264-0.296,4.512-0.408,6.76h-2.4    c-3.796,0.007-7.065,2.681-7.824,6.4l-5.528,26.288l-22.144-15.272c-3.178-2.193-7.47-1.802-10.2,0.928l-24,24    c-2.726,2.729-3.116,7.015-0.928,10.192l15.2,22.104l-26.296,5.528c-3.678,0.806-6.296,4.067-6.288,7.832v32    c-0.002,3.784,2.649,7.052,6.352,7.832l26.296,5.528l-15.2,22.104c-2.188,3.177-1.798,7.463,0.928,10.192l24,24    c2.73,2.73,7.022,3.121,10.2,0.928l22.104-15.24l5.528,26.296c0.759,3.719,4.028,6.393,7.824,6.4h32    c3.784,0.002,7.052-2.649,7.832-6.352l5.528-26.296l22.104,15.2c3.177,2.188,7.463,1.798,10.192-0.928l12.424-12.464v22.8    c0.036,11.381,6.133,21.88,16,27.552v44.448c0,17.673,14.327,32,32,32h32c17.673,0,32-14.327,32-32v-44.448    c9.867-5.672,15.964-16.171,16-27.552v-31.664c0.217-13.323,7.187-25.623,18.504-32.656c6.639-4.307,12.935-9.122,18.832-14.4    l-10.672-11.92c-5.275,4.728-10.911,9.037-16.856,12.888c-15.885,9.97-25.609,27.334-25.808,46.088v31.664c0,8.837-7.163,16-16,16    h-64c-8.837,0-16-7.163-16-16v-32.328c-0.185-18.399-9.756-35.428-25.376-45.152c-63.407-39.842-82.511-123.541-42.669-186.948    c24.72-39.341,67.862-63.286,114.325-63.452c-0.119,0.285-0.224,0.576-0.312,0.872c-0.297,2.1,0.253,4.233,1.528,5.928    l18.856,25.144c1.988,2.573,2.179,6.107,0.48,8.88c-1.636,2.79-4.799,4.312-8,3.848l-31.12-4.448    c-4.374-0.627-8.427,2.41-9.055,6.783c0,0.003-0.001,0.006-0.001,0.009l-6.792,47.512c-0.627,4.373,2.41,8.427,6.783,9.055    c0.003,0,0.006,0.001,0.009,0.001l31.12,4.448c4.374,0.623,7.415,4.674,6.792,9.048c-0.299,2.102-1.422,3.998-3.12,5.272    l-25.144,18.856c-3.535,2.651-4.251,7.665-1.6,11.2l28.8,38.4c2.651,3.535,7.665,4.251,11.2,1.6l25.152-18.856    c3.538-2.646,8.552-1.923,11.198,1.616c1.266,1.693,1.811,3.819,1.514,5.912l-4.44,31.12c-0.628,4.373,2.408,8.428,6.782,9.056    c0.001,0,0.001,0,0.002,0l47.52,6.792c0.374,0.048,0.751,0.072,1.128,0.072c3.983,0.005,7.362-2.921,7.928-6.864l4.44-31.12    c0.623-4.374,4.674-7.415,9.048-6.792c2.102,0.299,3.998,1.422,5.272,3.12l18.864,25.144c2.651,3.535,7.665,4.251,11.2,1.6    l38.4-28.8c3.535-2.651,4.251-7.665,1.6-11.2l-18.856-25.144c-1.979-2.577-2.17-6.105-0.48-8.88c1.601-2.827,4.793-4.359,8-3.84    l31.12,4.44c4.373,0.628,8.428-2.409,9.056-6.782c0-0.001,0-0.001,0-0.002l6.784-47.52    C482.676,131.285,479.64,127.231,475.266,126.603z M210.112,410.059h64v16h-64V410.059z M210.112,442.059h64v8    c0,8.837-7.163,16-16,16h-32c-8.837,0-16-7.163-16-16V442.059z M146.424,304.099c4.368,3.572,8.932,6.898,13.672,9.96    c7.559,4.777,13.249,12.004,16.12,20.472l-17.16,17.128l-16.616-11.456c-7.276-5.014-17.239-3.18-22.254,4.096    c-1.202,1.745-2.046,3.711-2.482,5.784l-4.192,19.976H94.496l-4.192-19.944c-1.82-8.647-10.305-14.182-18.952-12.362    c-2.073,0.436-4.039,1.28-5.784,2.482l-16.624,11.424l-14.576-14.544l11.448-16.608c5.019-7.273,3.191-17.237-4.082-22.256    c-1.746-1.205-3.714-2.051-5.79-2.488L16,291.563v-19.008l19.944-4.2c8.644-1.833,14.166-10.326,12.333-18.971    c-0.435-2.051-1.268-3.996-2.453-5.725l-11.456-16.656l14.576-14.544l16.632,11.456c7.279,5.009,17.242,3.169,22.251-4.11    c1.2-1.743,2.042-3.707,2.477-5.778l1.4-6.656c1.282,9.218,3.405,18.298,6.344,27.128c-26.323,3.138-45.118,27.022-41.98,53.345    c3.138,26.323,27.022,45.118,53.345,41.98C125.259,327.934,139.13,318.293,146.424,304.099z M134,292.827    c-5.974,16.605-24.277,25.223-40.882,19.25c-16.605-5.974-25.223-24.277-19.25-40.882c4.57-12.703,16.631-21.164,30.131-21.136    c0.104,0,0.2,0,0.304,0C111.66,265.922,121.707,280.391,134,292.827z M460.512,172.971l-23.2-3.312    c-13.122-1.874-25.278,7.245-27.152,20.366c-0.9,6.301,0.74,12.702,4.56,17.794l14.056,18.744l-25.6,19.2l-14.064-18.736    c-7.952-10.605-22.995-12.756-33.599-4.804c-5.092,3.818-8.459,9.503-9.361,15.804l-3.24,23.232l-31.672-4.528l3.312-23.2    c1.879-13.121-7.235-25.281-20.356-27.159c-6.305-0.903-12.709,0.737-17.804,4.559l-18.744,14.056l-19.2-25.6l18.736-14.064    c10.605-7.952,12.756-22.995,4.804-33.599c-3.818-5.092-9.503-8.459-15.804-9.361l-23.2-3.312l4.528-31.672l23.2,3.312    c13.121,1.879,25.281-7.235,27.159-20.356c0.903-6.305-0.737-12.709-4.559-17.804l-14.104-18.76l25.6-19.2l14.064,18.744    c7.952,10.605,22.995,12.756,33.599,4.804c5.092-3.818,8.459-9.503,9.361-15.804l3.312-23.2l31.672,4.52l-3.312,23.2    c-1.874,13.122,7.244,25.278,20.366,27.152c6.301,0.9,12.702-0.74,17.794-4.56l18.744-14.056l19.2,25.6l-18.744,14.064    c-10.605,7.952-12.756,22.995-4.804,33.599c3.818,5.092,9.503,8.459,15.804,9.361l23.2,3.312L460.512,172.971z"/><path d="M344,76.171c-35.346,0-64,28.654-64,64c0,35.346,28.654,64,64,64c35.346,0,64-28.654,64-64    C407.96,104.841,379.33,76.21,344,76.171z M344,188.171c-26.51,0-48-21.49-48-48s21.49-48,48-48c26.51,0,48,21.49,48,48    C391.969,166.668,370.497,188.14,344,188.171z"/><rect x="234px" y="354px" width="16px" height="24px"/><path d="M207.12,275.491c-49.385-19.292-73.78-74.966-54.487-124.351c7.476-19.136,20.893-35.369,38.279-46.313l-8.552-13.536    c-52.336,32.971-68.035,102.126-35.064,154.462c12.769,20.269,31.701,35.91,54.016,44.626c19.752,7.568,32.795,26.528,32.8,47.68    h16C250.137,310.307,233.035,285.418,207.12,275.491z"/><rect x="394px" y="298px" width="56px" height="16px"/><rect x="402px" y="334px" width="16px" height="62px" transform="matrix(0.6401 -0.7683 0.7683 0.6401 -133.6437 446.8239)"/><rect x="346px" y="362px" width="16px" height="56px"/><rect x="9px" y="130px" width="65px" height="15px" transform="matrix(0.9701 -0.2425 0.2425 0.9701 -32.2251 14.3351)"/><rect x="46px" y="35px" width="15px" height="68px" transform="matrix(0.5812 -0.8137 0.8137 0.5812 -34.3557 73.3688)"/><rect x="97px" y="1px" width="16px" height="66px" transform="matrix(0.9688 -0.2477 0.2477 0.9688 -5.133 27.2971)"/></g><g transform="matrix(0.1172042116522789 0 0 0.1172042116522789 189.00000071535771 252.00000012876433)" id="L1_5"><path d="m496.899.063c-107.348.099-212.523 45.282-288.585 123.979l-27.046 27.046-28.754-28.754-84.879 23.958-67.635 67.634 59.212 59.214-.001.001 3.062 3.061-27.853 57.46 18.359 18.359-44.905 44.906 21.213 21.213 44.905-44.905 21.717 21.719-95.096 95.094 21.213 21.213 95.096-95.095 21.717 21.717-44.907 44.907 21.213 21.213 44.907-44.907 18.359 18.36 57.462-27.853 62.274 62.274 67.629-67.626 24.041-84.809-28.831-28.829 27.045-27.045c37.509-36.154 68.597-80.734 89.905-128.928 40.467-91.521 33.292-165 34.191-174.591zm-413.585 172.975 60.422-17.054 16.317 16.316-79.629 79.628-37.999-38.002zm101.018 268.113-113.607-113.609 14.002-28.884 128.492 128.491zm171.619-72.946-17.108 60.354-40.896 40.894-38-37.999 79.625-79.625zm10.966-86.145-27.343 27.343-.003-.003-100.835 100.836-137.097-137.095c10.108-10.107 91.088-91.086 100.842-100.84 3.156-3.156-10.724 10.725 27.322-27.325 66.815-69.171 157.838-110.413 251.764-114.566-4.149 93.993-45.421 184.971-114.65 251.65z"/><path d="m367.495 241.092c26.69-26.69 26.711-70.097.048-96.76-12.895-12.895-30.061-19.997-48.336-19.997-37.725 0-68.393 30.4-68.384 68.355.005 18.283 7.111 35.455 20.01 48.354 26.409 26.407 69.855 26.856 96.662.048zm-48.288-86.757c10.262 0 19.895 3.981 27.123 11.21 14.966 14.967 14.944 39.341-.048 54.334-7.181 7.18-16.792 11.134-27.064 11.134-21.466 0-38.389-17.211-38.395-38.332-.003-10.26 17.372-38.346 38.384-38.346z"/></g><g transform="matrix(0.1171875 0 0 0.1171875 -28.000003032684276 180.9999994850159)" id="L1_6"><path d="m406.42 124.58v1.509c0 4.142 3.357 7.5 7.5 7.5s7.5-3.358 7.5-7.5v-1.509c0-5.293-1.875-10.436-5.28-14.482-2.667-3.168-7.398-3.577-10.567-.91s-3.576 7.398-.909 10.568c.8.953 1.756 2.563 1.756 4.824z"/><path d="m413.92 180.589c-4.143 0-7.5 3.358-7.5 7.5v12c0 4.142 3.357 7.5 7.5 7.5s7.5-3.358 7.5-7.5v-12c0-4.142-3.357-7.5-7.5-7.5z"/><path d="m421.42 151.089c0-4.142-3.357-7.5-7.5-7.5s-7.5 3.358-7.5 7.5v12c0 4.142 3.357 7.5 7.5 7.5s7.5-3.358 7.5-7.5z"/><path d="m292 463.395h-12c-4.143 0-7.5 3.358-7.5 7.5s3.357 7.5 7.5 7.5h12c4.143 0 7.5-3.358 7.5-7.5s-3.357-7.5-7.5-7.5z"/><path d="m255 463.395h-12c-4.142 0-7.5 3.358-7.5 7.5s3.358 7.5 7.5 7.5h12c4.143 0 7.5-3.358 7.5-7.5s-3.357-7.5-7.5-7.5z"/><path d="m218 463.395h-12c-4.142 0-7.5 3.358-7.5 7.5s3.358 7.5 7.5 7.5h12c4.142 0 7.5-3.358 7.5-7.5s-3.358-7.5-7.5-7.5z"/><path d="m181 463.395h-12c-4.142 0-7.5 3.358-7.5 7.5s3.358 7.5 7.5 7.5h12c4.142 0 7.5-3.358 7.5-7.5s-3.358-7.5-7.5-7.5z"/><path d="m147.104 462.801c-1.856-.791-3.338-2.323-4.064-4.204-1.495-3.864-5.838-5.783-9.7-4.291-3.863 1.494-5.785 5.836-4.291 9.7 2.178 5.634 6.615 10.224 12.173 12.593.959.409 1.957.603 2.938.603 2.915 0 5.688-1.71 6.903-4.561 1.624-3.811-.148-8.216-3.959-9.84z"/><path d="m135.04 443.927c4.142 0 7.5-3.358 7.5-7.5v-12c0-4.142-3.358-7.5-7.5-7.5s-7.5 3.358-7.5 7.5v12c0 4.143 3.358 7.5 7.5 7.5z"/><path d="m169.217 172.244h-104.018c-4.142 0-7.5 3.358-7.5 7.5s3.358 7.5 7.5 7.5h104.018c4.142 0 7.5-3.358 7.5-7.5s-3.358-7.5-7.5-7.5z"/><path d="m169.217 208.582h-104.018c-4.142 0-7.5 3.358-7.5 7.5s3.358 7.5 7.5 7.5h104.018c4.142 0 7.5-3.358 7.5-7.5s-3.358-7.5-7.5-7.5z"/><path d="m169.217 244.756h-104.018c-4.142 0-7.5 3.358-7.5 7.5s3.358 7.5 7.5 7.5h104.018c4.142 0 7.5-3.358 7.5-7.5s-3.358-7.5-7.5-7.5z"/><path d="m176.717 288.756c0-4.142-3.358-7.5-7.5-7.5h-104.018c-4.142 0-7.5 3.358-7.5 7.5s3.358 7.5 7.5 7.5h104.018c4.142 0 7.5-3.358 7.5-7.5z"/><path d="m65.199 317.593c-4.142 0-7.5 3.358-7.5 7.5s3.358 7.5 7.5 7.5h46.629c4.142 0 7.5-3.358 7.5-7.5s-3.358-7.5-7.5-7.5z"/><path d="m217.689 395.744c1.464 1.464 3.384 2.197 5.303 2.197s3.839-.732 5.303-2.197l30.275-30.275c2.929-2.929 2.929-7.678 0-10.606-2.93-2.929-7.678-2.929-10.606 0l-24.972 24.972-17.51-17.51c-2.929-2.929-7.678-2.929-10.606 0-2.929 2.929-2.929 7.678 0 10.606z"/><path d="m337.006 195.944c6.97-5.456 13.271-11.757 18.729-18.73 4.109-5.251 3.638-12.781-1.096-17.515l-13.671-13.67c1.792-3.548 3.323-7.246 4.564-11.026h19.342c6.696 0 12.354-4.99 13.159-11.608.254-2.091.445-4.201.578-6.314h8.389c4.143 0 7.5-3.358 7.5-7.5s-3.357-7.5-7.5-7.5h-8.473c-.128-1.733-.284-3.462-.492-5.178-.806-6.618-6.463-11.608-13.159-11.608h-19.342c-1.24-3.778-2.771-7.476-4.564-11.026l13.671-13.671c4.734-4.735 5.205-12.265 1.096-17.515-5.457-6.971-11.759-13.272-18.729-18.729-5.251-4.111-12.781-3.642-17.515 1.095l-13.672 13.67c-3.546-1.792-7.244-3.323-11.025-4.564v-19.342c0-6.696-4.99-12.354-11.607-13.159-8.747-1.066-17.744-1.066-26.493 0-6.618.806-11.608 6.462-11.608 13.159v19.341c-3.78 1.241-7.479 2.772-11.026 4.565l-13.67-13.67c-4.735-4.736-12.266-5.207-17.515-1.097-6.972 5.457-13.273 11.758-18.729 18.729-4.111 5.251-3.64 12.781 1.095 17.516l13.67 13.67c-1.792 3.547-3.324 7.247-4.565 11.026h-19.341c-6.696 0-12.353 4.99-13.159 11.607-.209 1.716-.366 3.445-.493 5.179h-105.178c-4.674 0-9.069 1.82-12.375 5.126l-38.677 38.679c-3.305 3.305-5.125 7.699-5.125 12.374v216.137c0 9.649 7.851 17.5 17.5 17.5h110.04v7.533c0 4.142 3.358 7.5 7.5 7.5s7.5-3.358 7.5-7.5v-7.533h20.477c7.884 27.766 33.449 48.17 63.707 48.17 36.52 0 66.23-29.711 66.23-66.23 0-33.916-25.631-61.943-58.538-65.769v-34.066c0-4.142-3.358-7.5-7.5-7.5s-7.5 3.358-7.5 7.5v34.017c-33.093 3.65-58.923 31.769-58.923 65.818 0 1.026.031 2.045.078 3.061h-143.071c-1.378 0-2.5-1.122-2.5-2.5v-216.138c0-.658.267-1.302.732-1.768l38.677-38.677c.473-.472 1.1-.732 1.768-.732h105.089c.134 2.114.325 4.224.579 6.314.806 6.618 6.462 11.608 13.159 11.608h19.341c1.241 3.78 2.772 7.479 4.565 11.026l-13.67 13.67c-4.735 4.734-5.207 12.265-1.096 17.516 5.458 6.972 11.759 13.273 18.729 18.729 4.904 3.838 11.797 3.678 16.542-.218v43.273c0 4.142 3.358 7.5 7.5 7.5s7.5-3.358 7.5-7.5v-57.649c3.44 1.717 7.016 3.193 10.669 4.392v19.341c0 6.696 4.99 12.354 11.608 13.16 4.375.532 8.833.802 13.246.802 4.414 0 8.871-.27 13.246-.803 6.618-.805 11.608-6.463 11.608-13.159v-19.341c3.78-1.241 7.479-2.772 11.026-4.564l13.67 13.67c4.738 4.734 12.266 5.205 17.518 1.096zm-110.282 126.659c28.249 0 51.23 22.982 51.23 51.23s-22.982 51.23-51.23 51.23-51.23-22.982-51.23-51.23 22.981-51.23 51.23-51.23zm73.214-155.269c-3.438 1.805-7.063 3.306-10.776 4.46-5.604 1.743-9.368 6.832-9.368 12.664v19.072c-6.531.683-13.175.683-19.708 0v-19.072c0-5.832-3.765-10.921-9.37-12.665-3.712-1.154-7.338-2.654-10.775-4.46-5.196-2.729-11.458-1.793-15.582 2.33l-13.48 13.48c-5.114-4.144-9.791-8.821-13.936-13.936l13.479-13.48c4.124-4.124 5.06-10.385 2.331-15.581-1.805-3.437-3.306-7.062-4.461-10.776-1.743-5.604-6.833-9.369-12.664-9.369h-19.072c-.341-3.265-.514-6.573-.514-9.854s.173-6.588.514-9.854h19.072c5.832 0 10.921-3.765 12.664-9.369 1.155-3.713 2.656-7.339 4.46-10.775 2.73-5.197 1.793-11.458-2.33-15.582l-13.479-13.48c4.144-5.114 8.821-9.792 13.936-13.936l13.48 13.479c4.123 4.123 10.384 5.06 15.582 2.331 3.437-1.805 7.063-3.306 10.775-4.461 5.604-1.742 9.37-6.832 9.37-12.664v-19.071c6.529-.683 13.177-.683 19.708 0v19.072c0 5.833 3.766 10.922 9.368 12.664 3.714 1.155 7.34 2.656 10.776 4.461 5.197 2.729 11.46 1.792 15.581-2.331l13.481-13.478c5.114 4.144 9.792 8.821 13.936 13.936l-13.479 13.48c-.001 0-.001 0-.001 0-4.124 4.124-5.06 10.386-2.33 15.581 1.807 3.44 3.308 7.066 4.461 10.775 1.741 5.605 6.831 9.371 12.664 9.371h19.072c.342 3.268.515 6.576.515 9.854s-.173 6.586-.515 9.854h-19.073c-5.834 0-10.923 3.766-12.663 9.369-1.155 3.712-2.656 7.338-4.46 10.775-2.731 5.196-1.795 11.458 2.328 15.583l13.48 13.48c-4.145 5.115-8.822 9.792-13.936 13.936l-13.479-13.48c-4.123-4.126-10.384-5.062-15.582-2.333z"/><path d="m308.465 84.882c-3.786 1.68-5.493 6.111-3.813 9.897 2.158 4.863 3.252 10.034 3.252 15.369 0 20.933-17.03 37.963-37.964 37.963-20.933 0-37.963-17.03-37.963-37.963s17.03-37.963 37.963-37.963c4.632 0 9.171.833 13.491 2.476 3.87 1.469 8.203-.472 9.676-4.344s-.472-8.204-4.344-9.676c-6.029-2.293-12.362-3.456-18.823-3.456-29.204 0-52.963 23.759-52.963 52.963s23.759 52.963 52.963 52.963 52.964-23.759 52.964-52.963c0-7.444-1.528-14.662-4.541-21.453-1.68-3.786-6.113-5.492-9.898-3.813z"/><path d="m269.939 86.864c-12.839 0-23.284 10.445-23.284 23.284s10.445 23.284 23.284 23.284 23.284-10.445 23.284-23.284-10.445-23.284-23.284-23.284zm0 31.568c-4.568 0-8.284-3.716-8.284-8.284s3.716-8.284 8.284-8.284 8.284 3.716 8.284 8.284-3.715 8.284-8.284 8.284z"/><path d="m499.5 321.266c6.893 0 12.5-5.607 12.5-12.5v-54.7c0-6.893-5.607-12.5-12.5-12.5h-79.573c.934-1.25 1.493-2.797 1.493-4.477v-12c0-4.142-3.357-7.5-7.5-7.5s-7.5 3.358-7.5 7.5v12c0 1.68.559 3.227 1.493 4.477h-79.573c-6.893 0-12.5 5.607-12.5 12.5v54.7c0 6.893 5.607 12.5 12.5 12.5h78.08v15.039h-78.08c-6.893 0-12.5 5.607-12.5 12.5v54.7c0 6.893 5.607 12.5 12.5 12.5h78.08v15.04h-78.08c-6.893 0-12.5 5.607-12.5 12.5v19.949c-3.59.559-6.34 3.655-6.34 7.401s2.75 6.842 6.34 7.401v19.949c0 6.893 5.607 12.5 12.5 12.5h171.16c6.893 0 12.5-5.607 12.5-12.5v-54.7c0-6.893-5.607-12.5-12.5-12.5h-78.08v-15.04h19.58c4.143 0 7.5-3.358 7.5-7.5s-3.357-7.5-7.5-7.5h-110.16v-49.7h166.16v49.7h-21c-4.143 0-7.5 3.358-7.5 7.5s3.357 7.5 7.5 7.5h23.5c6.893 0 12.5-5.607 12.5-12.5v-54.7c0-6.893-5.607-12.5-12.5-12.5h-78.08v-15.039zm-2.5 124.779v49.7h-166.16v-49.7zm-166.16-139.779v-49.7h166.16v49.7z"/><path d="m468.915 273.916h-109.99c-4.143 0-7.5 3.358-7.5 7.5s3.357 7.5 7.5 7.5h109.99c4.143 0 7.5-3.358 7.5-7.5s-3.357-7.5-7.5-7.5z"/><path d="m476.415 376.156c0-4.142-3.357-7.5-7.5-7.5h-109.99c-4.143 0-7.5 3.358-7.5 7.5s3.357 7.5 7.5 7.5h109.99c4.143 0 7.5-3.358 7.5-7.5z"/><path d="m358.925 478.395h109.99c4.143 0 7.5-3.358 7.5-7.5s-3.357-7.5-7.5-7.5h-109.99c-4.143 0-7.5 3.358-7.5 7.5s3.357 7.5 7.5 7.5z"/></g><g transform="matrix(0.9375 0 0 0.9375 223.99999874114997 185.00000140190116)" id="L1_7"><path d="m2.08 43.608c.035.44.354.805.786.898l3.485.752c.123.594.279 1.18.468 1.752l-2.638 2.39c-.327.296-.421.772-.231 1.171.482 1.014 1.019 1.951 1.596 2.785.25.362.708.518 1.129.383l3.387-1.091c.405.454.836.885 1.29 1.29l-1.091 3.387c-.135.419.02.878.383 1.129.834.577 1.771 1.114 2.785 1.596.4.19.875.095 1.171-.231l2.39-2.638c.573.188 1.159.345 1.753.468l.752 3.485c.093.431.458.75.897.786.532.042 1.065.08 1.608.08s1.076-.038 1.608-.08c.44-.035.805-.354.898-.786l.752-3.485c.594-.123 1.181-.279 1.753-.468l2.39 2.638c.297.327.773.422 1.171.231 1.014-.482 1.951-1.02 2.785-1.596.363-.251.518-.71.383-1.129l-1.091-3.387c.454-.405.885-.836 1.29-1.289l3.387 1.091c.419.136.878-.02 1.129-.383.577-.834 1.114-1.771 1.596-2.785.19-.399.096-.875-.231-1.171l-2.638-2.39c.188-.573.345-1.159.468-1.753l3.485-.752c.431-.093.75-.458.786-.897.041-.533.079-1.066.079-1.609s-.038-1.076-.08-1.608c-.035-.44-.354-.805-.786-.898l-3.485-.752c-.123-.594-.279-1.181-.468-1.753l2.638-2.39c.327-.296.421-.772.231-1.171-.482-1.014-1.02-1.951-1.596-2.785-.251-.363-.71-.519-1.129-.383l-3.387 1.091c-.405-.454-.836-.885-1.29-1.29l1.091-3.387c.135-.419-.02-.878-.383-1.129-.834-.577-1.771-1.114-2.785-1.596-.4-.191-.875-.096-1.171.231l-2.39 2.638c-.573-.188-1.159-.345-1.753-.468l-.752-3.485c-.093-.431-.458-.75-.897-.786-1.065-.086-2.152-.084-3.217 0-.44.035-.805.354-.898.786l-.752 3.485c-.594.123-1.18.279-1.752.468l-2.39-2.638c-.296-.327-.771-.421-1.171-.231-1.014.482-1.951 1.019-2.785 1.596-.363.251-.518.71-.383 1.129l1.091 3.387c-.454.405-.885.836-1.29 1.29l-3.386-1.091c-.42-.136-.879.02-1.129.383-.577.834-1.114 1.771-1.596 2.785-.19.399-.096.875.231 1.171l2.638 2.39c-.188.573-.345 1.159-.468 1.753l-3.485.752c-.431.093-.75.458-.786.897-.042.533-.08 1.066-.08 1.609s.038 1.076.08 1.608zm1.941-2.317 3.402-.735c.402-.087.71-.411.776-.817.15-.922.392-1.827.719-2.691.146-.384.041-.819-.264-1.095l-2.569-2.328c.224-.429.458-.84.7-1.229l3.296 1.062c.39.125.82 0 1.081-.318.59-.722 1.256-1.387 1.978-1.978.318-.26.445-.689.318-1.081l-1.062-3.296c.389-.243.799-.477 1.229-.7l2.328 2.57c.277.305.713.41 1.096.264.862-.327 1.767-.569 2.69-.719.406-.066.73-.374.817-.776l.734-3.402c.471-.025.95-.026 1.419 0l.735 3.402c.087.402.411.71.817.776.922.15 1.827.392 2.691.719.382.146.818.042 1.095-.264l2.328-2.569c.429.224.84.458 1.229.7l-1.062 3.296c-.126.392 0 .82.318 1.081.722.59 1.387 1.256 1.978 1.978.261.319.69.446 1.081.318l3.296-1.062c.243.389.477.799.7 1.228l-2.57 2.328c-.305.276-.41.711-.264 1.096.327.862.569 1.767.719 2.69.066.406.374.73.776.817l3.402.734c.013.235.022.472.022.71s-.008.475-.021.709l-3.402.735c-.402.087-.71.411-.776.817-.15.922-.392 1.827-.719 2.691-.146.384-.041.819.264 1.095l2.569 2.328c-.224.429-.458.84-.7 1.229l-3.296-1.062c-.393-.128-.82-.001-1.081.318-.589.72-1.255 1.386-1.978 1.978-.318.26-.444.689-.318 1.08l1.062 3.296c-.389.243-.799.477-1.228.7l-2.328-2.57c-.276-.305-.711-.408-1.096-.264-.862.327-1.767.569-2.69.719-.406.066-.73.374-.817.776l-.734 3.402c-.471.025-.95.026-1.419 0l-.735-3.402c-.087-.402-.411-.71-.817-.776-.922-.15-1.827-.392-2.691-.719-.383-.146-.819-.042-1.095.264l-2.328 2.569c-.429-.224-.84-.458-1.229-.7l1.062-3.296c.126-.392 0-.82-.318-1.081-.722-.59-1.387-1.256-1.978-1.978-.261-.319-.691-.445-1.081-.318l-3.296 1.062c-.243-.389-.477-.799-.7-1.229l2.57-2.328c.305-.276.41-.711.264-1.096-.327-.862-.569-1.767-.719-2.69-.066-.406-.374-.73-.776-.817l-3.404-.732c-.012-.235-.021-.472-.021-.71s.008-.475.021-.709z"/><path d="m54.219 16.235c.376-.118.648-.447.693-.839.06-.505.088-.962.088-1.396s-.028-.891-.087-1.396c-.045-.392-.317-.721-.693-.839l-2.773-.871c-.083-.227-.175-.45-.276-.668l1.344-2.575c.182-.349.142-.773-.102-1.083-.579-.732-1.245-1.398-1.979-1.979-.31-.245-.734-.284-1.083-.103l-2.577 1.344c-.218-.1-.441-.192-.668-.275l-.871-2.773c-.118-.376-.447-.648-.839-.693-1.012-.118-1.781-.118-2.793 0-.392.045-.721.317-.839.693l-.871 2.773c-.227.083-.45.175-.668.276l-2.575-1.344c-.349-.181-.772-.142-1.083.102-.732.579-1.398 1.245-1.979 1.979-.245.31-.285.733-.103 1.083l1.343 2.575c-.1.218-.192.441-.275.668l-2.773.871c-.376.118-.648.447-.693.839-.059.505-.087.962-.087 1.396s.028.891.087 1.396c.045.392.317.721.693.839l2.773.871c.083.227.175.45.276.668l-1.344 2.575c-.182.349-.142.773.102 1.083.579.732 1.245 1.398 1.979 1.979.309.245.734.284 1.083.103l2.575-1.343c.218.1.441.192.668.275l.871 2.773c.118.376.447.648.839.693.507.06.964.088 1.398.088s.891-.028 1.396-.087c.392-.045.721-.317.839-.693l.871-2.773c.227-.083.45-.175.668-.276l2.575 1.344c.349.182.773.143 1.083-.102.732-.579 1.398-1.245 1.979-1.979.245-.31.285-.733.103-1.083l-1.344-2.575c.101-.218.193-.441.276-.668zm-3.86-.884c-.316.1-.562.349-.658.667-.136.452-.316.887-.534 1.294-.157.292-.16.643-.006.936l1.269 2.432c-.237.263-.488.514-.75.75l-2.432-1.269c-.294-.154-.645-.15-.936.006-.407.218-.842.398-1.294.534-.317.095-.567.342-.667.658l-.824 2.624c-.365.022-.688.022-1.054 0l-.824-2.624c-.1-.316-.349-.562-.667-.658-.453-.136-.888-.316-1.293-.534-.292-.157-.643-.16-.937-.006l-2.432 1.269c-.263-.237-.514-.488-.75-.75l1.269-2.432c.153-.293.151-.645-.006-.936-.218-.407-.398-.842-.534-1.294-.095-.317-.342-.567-.658-.667l-2.624-.824c-.012-.183-.017-.358-.017-.527s.005-.344.017-.527l2.624-.824c.316-.1.562-.349.658-.667.136-.453.316-.888.534-1.293.157-.292.16-.643.006-.937l-1.269-2.432c.237-.263.488-.514.75-.75l2.432 1.269c.293.153.645.15.936-.006.407-.218.842-.398 1.294-.534.317-.095.567-.342.667-.658l.824-2.624c.365-.022.688-.022 1.054 0l.824 2.624c.1.316.349.562.667.658.453.136.888.316 1.293.534.292.157.643.16.937.006l2.432-1.269c.263.237.514.488.75.75l-1.269 2.432c-.153.293-.151.645.006.936.218.407.398.842.534 1.294.095.317.342.567.658.667l2.624.824c.012.183.017.358.017.527s-.005.344-.017.527z"/><path d="m61.262 34.964-1.718-.61c-.098-.279-.21-.552-.337-.817l.781-1.645c.163-.342.118-.746-.116-1.044-.5-.639-1.078-1.218-1.719-1.72-.299-.234-.705-.278-1.045-.116l-1.646.781c-.264-.126-.537-.239-.816-.336l-.611-1.718c-.127-.357-.446-.612-.822-.658-.891-.107-1.536-.107-2.427 0-.376.045-.695.3-.822.658l-.61 1.718c-.279.098-.552.21-.817.337l-1.645-.781c-.34-.162-.745-.117-1.044.116-.639.5-1.218 1.078-1.72 1.719-.233.298-.278.703-.116 1.045l.781 1.646c-.126.264-.239.537-.336.816l-1.718.611c-.357.127-.612.446-.658.822-.055.443-.081.84-.081 1.212s.026.768.08 1.213c.045.376.3.695.658.822l1.718.61c.098.279.21.552.337.817l-.781 1.645c-.163.342-.118.746.116 1.044.5.639 1.078 1.218 1.719 1.72.298.233.704.278 1.045.116l1.646-.781c.264.126.537.239.816.336l.611 1.718c.127.357.446.612.822.658.445.056.841.082 1.213.082s.768-.026 1.213-.08c.376-.045.695-.3.822-.658l.61-1.718c.279-.098.552-.21.817-.337l1.645.781c.341.163.747.119 1.044-.116.639-.5 1.218-1.078 1.72-1.719.233-.298.278-.703.116-1.045l-.781-1.646c.126-.264.239-.537.336-.816l1.718-.611c.357-.127.612-.446.658-.822.056-.445.082-.841.082-1.213s-.026-.768-.08-1.213c-.045-.377-.3-.695-.658-.823zm-1.272 2.401-1.585.563c-.307.109-.542.361-.629.675-.131.475-.318.928-.555 1.347-.16.283-.172.627-.033.921l.718 1.513c-.166.182-.34.356-.521.521l-1.513-.718c-.292-.139-.637-.127-.921.033-.42.238-.873.424-1.346.555-.314.087-.566.322-.676.629l-.563 1.585c-.242.013-.488.013-.73 0l-.563-1.585c-.109-.307-.361-.542-.675-.629-.475-.131-.928-.318-1.347-.555-.283-.159-.626-.171-.921-.033l-1.513.718c-.182-.166-.356-.34-.521-.521l.718-1.513c.14-.294.127-.638-.033-.921-.238-.42-.424-.873-.555-1.346-.087-.314-.322-.566-.629-.676l-1.585-.563c-.008-.121-.012-.242-.012-.365s.004-.245.01-.365l1.585-.564c.307-.109.542-.361.628-.675.132-.476.319-.928.556-1.347.16-.283.172-.627.033-.921l-.718-1.513c.166-.182.34-.356.521-.521l1.513.718c.294.14.638.128.921-.033.42-.238.873-.424 1.346-.555.314-.087.566-.322.676-.629l.563-1.585c.242-.013.488-.013.73 0l.563 1.585c.109.307.361.542.675.629.475.131.928.318 1.347.555.284.161.627.173.921.033l1.513-.718c.182.166.356.34.521.521l-.718 1.513c-.14.294-.127.638.033.921.238.42.424.873.555 1.346.087.314.322.566.629.676l1.585.563c.008.122.012.243.012.366s-.004.244-.01.365z"/><path d="m22 53c6.065 0 11-4.935 11-11s-4.935-11-11-11-11 4.935-11 11 4.935 11 11 11zm0-20c4.962 0 9 4.038 9 9s-4.038 9-9 9-9-4.038-9-9 4.038-9 9-9z"/><path d="m2.022 25.359 1.536 1.281c4.579-5.491 11.3-8.64 18.442-8.64.509 0 1.017.029 1.525.061l-1.232 1.232 1.414 1.414 3-3c.391-.391.391-1.023 0-1.414l-3-3-1.414 1.414 1.359 1.359c-.55-.035-1.101-.066-1.652-.066-7.736 0-15.018 3.411-19.978 9.359z"/><path d="m43 9c-2.757 0-5 2.243-5 5s2.243 5 5 5 5-2.243 5-5-2.243-5-5-5zm0 8c-1.654 0-3-1.346-3-3s1.346-3 3-3 3 1.346 3 3-1.346 3-3 3z"/><path d="m52 33c-2.206 0-4 1.794-4 4s1.794 4 4 4 4-1.794 4-4-1.794-4-4-4zm0 6c-1.103 0-2-.897-2-2s.897-2 2-2 2 .897 2 2-.897 2-2 2z"/><path d="m61.196 5.02-5-1c-.544-.11-1.069.243-1.177.784l-1 5 1.961.393.539-2.692c.969 2.016 1.481 4.238 1.481 6.495 0 3.448-1.138 6.69-3.29 9.375l1.561 1.251c2.405-3.001 3.729-6.774 3.729-10.626 0-2.619-.605-5.201-1.756-7.531l2.56.512z"/></g><g transform="matrix(0.12096545845270157 0 0 0.12096545845270157 185 140)" id="L1_8"><path d="m137.972656 98.679688c-15.128906 5.714843-25.96875 20.226562-25.96875 37.328124 0 6.585938 1.753906 12.714844 4.585938 18.203126-12 4.613281-20.585938 16.183593-20.585938 29.796874 0 13.617188 8.585938 25.183594 20.585938 29.800782-2.832032 5.488281-4.585938 11.617187-4.585938 18.199218 0 17.105469 10.839844 31.617188 25.96875 37.328126-1.199218 3.351562-1.96875 6.914062-1.96875 10.671874 0 17.648438 14.351563 32 32 32 3.984375 0 7.761719-.824218 11.28125-2.152343 5.183594 10.699219 16.054688 18.152343 28.71875 18.152343 17.648438 0 32-14.351562 32-32v-224c0-17.644531-14.351562-32-32-32-12.664062 0-23.535156 7.457032-28.71875 18.152344-3.519531-1.328125-7.296875-2.152344-11.28125-2.152344-17.648437 0-32 14.355469-32 32 0 3.761719.769532 7.320313 1.96875 10.671876zm30.03125-26.671876c8.824219 0 16 7.175782 16 16h16c0-7.6875-2.839844-14.664062-7.375-20.183593 1.855469-6.78125 8.007813-11.816407 15.375-11.816407 8.824219 0 16 7.175782 16 16v224c0 8.824219-7.175781 16-16 16-7.367187 0-13.519531-5.03125-15.375-11.816406 4.535156-5.519531 7.375-12.492187 7.375-20.183594h-16c0 8.824219-7.175781 16-16 16-8.824218 0-16-7.175781-16-16 0-8.824218 7.175782-16 16-16v-16c-7.792968 0-14.847656 2.914063-20.398437 7.554688-11.136719-2.074219-19.601563-11.824219-19.601563-23.554688 0-13.230468 10.769532-24 24-24 13.234375 0 24 10.769532 24 24h16c0-22.054687-17.941406-40-40-40-9.039062 0-17.296875 3.128907-24 8.210938v-.210938c-8.824218 0-16-7.175781-16-16 0-8.824218 7.175782-16 16-16v-.207031c6.703125 5.082031 14.960938 8.207031 24 8.207031 22.058594 0 40-17.941406 40-40h-16c0 13.234376-10.765625 24-24 24-13.230468 0-24-10.765624-24-24 0-11.726562 8.464844-21.476562 19.601563-23.550781 5.550781 4.640625 12.605469 7.550781 20.398437 7.550781v-16c-8.824218 0-16-7.175781-16-16 0-8.824218 7.175782-16 16-16zm0 0"/><path d="m328.003906 56.007812c-3.984375 0-7.757812.824219-11.277344 2.152344-5.1875-10.695312-16.058593-18.152344-28.722656-18.152344-17.648437 0-32 14.355469-32 32v224c0 17.648438 14.351563 32 32 32 12.664063 0 23.535156-7.453124 28.722656-18.152343 3.519532 1.328125 7.292969 2.152343 11.277344 2.152343 17.648438 0 32-14.351562 32-32 0-3.757812-.765625-7.320312-1.96875-10.671874 15.128906-5.710938 25.96875-20.222657 25.96875-37.328126 0-6.582031-1.75-12.710937-4.582031-18.199218 12-4.617188 20.582031-16.183594 20.582031-29.800782 0-13.613281-8.582031-25.183593-20.582031-29.796874 2.832031-5.488282 4.582031-11.617188 4.582031-18.203126 0-17.101562-10.839844-31.613281-25.96875-37.328124 1.203125-3.351563 1.96875-6.910157 1.96875-10.671876 0-17.644531-14.351562-32-32-32zm40 80c0 13.234376-10.765625 24-24 24-13.230468 0-24-10.765624-24-24h-16c0 22.058594 17.945313 40 40 40 9.039063 0 17.296875-3.125 24-8.207031v.207031c8.824219 0 16 7.175782 16 16 0 8.824219-7.175781 16-16 16v.210938c-6.703125-5.082031-14.960937-8.210938-24-8.210938-22.054687 0-40 17.945313-40 40h16c0-13.230468 10.769532-24 24-24 13.234375 0 24 10.769532 24 24 0 11.730469-8.464844 21.480469-19.597656 23.554688-5.554688-4.640625-12.609375-7.554688-20.402344-7.554688v16c8.824219 0 16 7.175782 16 16 0 8.824219-7.175781 16-16 16-8.824218 0-16-7.175781-16-16h-16c0 7.691407 2.839844 14.664063 7.375 20.183594-1.855468 6.785156-8.007812 11.816406-15.375 11.816406-8.824218 0-16-7.175781-16-16v-224c0-8.824218 7.175782-16 16-16 7.367188 0 13.519532 5.035157 15.375 11.816407-4.535156 5.519531-7.375 12.496093-7.375 20.183593h16c0-8.824218 7.175782-16 16-16 8.824219 0 16 7.175782 16 16 0 8.824219-7.175781 16-16 16v16c7.792969 0 14.847656-2.910156 20.402344-7.550781 11.132812 2.074219 19.597656 11.824219 19.597656 23.550781zm0 0"/><path d="m373.980469 49.898438c-37.382813-35.136719-86.34375-52.753907-137.726563-49.519532l.992188 15.964844c46.949218-2.917969 91.636718 13.136719 125.78125 45.210938 34.160156 32.101562 52.976562 75.597656 52.976562 122.453124 0 56.464844-28.144531 108.824219-75.289062 140.066407-16.261719 10.78125-28.566406 26.160156-36.148438 43.933593h-113.457031c-7.6875-17.902343-20.039063-33.390624-36.328125-44.269531-48.585938-32.472656-76.503906-86.703125-74.6875-145.089843l-15.992188-.496094c-1.992187 63.9375 28.589844 123.335937 81.792969 158.882812 11.75 7.855469 21.132813 18.550782 27.671875 30.972656h-21.5625v16h27.945313c1.550781 5.183594 2.792969 10.496094 3.421875 16h-15.367188v16h16v24c0 4.425782 3.585938 8 8 8h8c0 26.472657 21.527344 48 48 48s48-21.527343 48-48h8c4.417969 0 8-3.574218 8-8v-24h16v-16h-15.4375c.566406-5.496093 1.695313-10.824218 3.214844-16h28.222656v-16h-21.910156c6.445312-12.285156 15.773438-22.847656 27.464844-30.589843 51.621094-34.234375 82.445312-91.578125 82.445312-153.410157 0-50.574218-21.152344-99.460937-58.023437-134.109374zm-125.976563 430.109374c-17.648437 0-32-14.351562-32-32h64c0 17.648438-14.351562 32-32 32zm48-48h-96v-16h96zm.570313-32h-97.210938c-.535156-5.445312-1.398437-10.796874-2.710937-16h102.410156c-1.273438 5.195313-2.011719 10.570313-2.488281 16zm0 0"/><path d="m56.003906 56.007812c17.648438 0 32 14.355469 32 32 0 4.425782 3.585938 8 8 8 4.417969 0 8-3.574218 8-8 0-17.644531 14.351563-32 32-32 4.417969 0 8-3.574218 8-8 0-4.421874-3.582031-8-8-8-17.648437 0-32-14.351562-32-32 0-4.421874-3.582031-7.9999995-8-7.9999995-4.414062 0-8 3.5781255-8 7.9999995 0 17.648438-14.351562 32-32 32-4.414062 0-8 3.578126-8 8 0 4.425782 3.585938 8 8 8zm40-21.496093c3.554688 5.34375 8.152344 9.945312 13.496094 13.496093-5.34375 3.554688-9.941406 8.152344-13.496094 13.496094-3.550781-5.34375-8.152344-9.941406-13.496094-13.496094 5.34375-3.550781 9.945313-8.152343 13.496094-13.496093zm0 0"/><path d="m88.003906 136.007812c4.417969 0 8-3.574218 8-8 0-4.421874-3.582031-8-8-8-17.648437 0-32-14.351562-32-32 0-4.421874-3.582031-8-8-8-4.414062 0-8 3.578126-8 8 0 17.648438-14.351562 32-32 32-4.414062 0-7.99999975 3.578126-7.99999975 8 0 4.425782 3.58593775 8 7.99999975 8 17.648438 0 32 14.355469 32 32 0 4.425782 3.585938 8 8 8 4.417969 0 8-3.574218 8-8 0-17.644531 14.351563-32 32-32zm-40 5.496094c-3.550781-5.34375-8.152344-9.941406-13.496094-13.496094 5.34375-3.550781 9.9375-8.152343 13.496094-13.496093 3.554688 5.34375 8.152344 9.9375 13.496094 13.496093-5.34375 3.554688-9.941406 8.152344-13.496094 13.496094zm0 0"/></g><g transform="matrix(0.1171875 0 0 0.1171875 -2.99999958515167 -16.999999814033515)" id="L1_9"><path d="m291.757 186.089c3.863-4.178 6.149-9.066 6.149-14.426 0-5.203-2.208-9.933-5.833-14.032 19.313-11.746 27.748-34.134 27.512-54.078-.079-3.153-2.602-5.755-5.833-5.833-.789 0-18.92-.158-35.08 8.908-5.045-17.895-17.816-30.666-18.447-31.217-2.365-2.286-5.991-2.286-8.277-.079-.631.631-13.559 13.401-18.604 31.217-16.16-8.987-34.213-8.829-35.08-8.829-3.232.079-5.833 2.68-5.833 5.833-.237 19.945 8.04 42.332 27.433 54.078-3.548 4.099-5.755 8.908-5.755 14.032 0 5.36 2.286 10.248 6.07 14.426-58.572 43.751-99.485 182.888-99.485 220.255 0 46.195 59.124 99.958 135.275 99.958 76.23 0 135.353-53.763 135.353-99.958-.001-37.287-40.914-176.425-99.565-220.255zm-87.03-76.151c7.252.789 19.55 3.311 28.931 11.037 3.705 3.074 9.223.63 9.696-4.02 1.104-11.983 8.041-22.546 12.692-28.38 4.572 5.834 11.509 16.476 12.613 28.537.473 4.73 6.07 7.016 9.696 4.02 9.302-7.804 21.679-10.327 29.01-11.194-2.601 22.309-12.455 33.582-25.699 39.889-7.016-3.626-15.845-5.833-25.699-5.833-9.775 0-18.604 2.208-25.699 5.833-13.007-6.149-22.939-17.186-25.541-39.889zm51.241 384.54c-68.347 0-123.45-48.245-123.45-88.133 0-35.396 41.465-175.006 97.672-212.845 7.095 3.705 15.924 5.912 25.778 5.912 9.933 0 18.762-2.208 25.856-5.912 56.207 37.918 97.672 177.449 97.672 212.845 0 39.888-55.103 88.133-123.528 88.133z"/><path d="m255.968 301.104c-37.524 0-68.11 30.587-68.11 68.189s30.587 68.11 68.11 68.11c37.602 0 68.189-30.508 68.189-68.11s-30.587-68.189-68.189-68.189zm0 62.277h.079c4.966 0 9.696 1.892 13.165 5.439 3.547 3.469 5.439 8.198 5.439 13.086 0 8.277-5.36 15.135-12.771 17.658v2.444c0 3.311-2.602 5.912-5.912 5.912-3.232 0-5.912-2.601-5.912-5.912v-2.444c-7.331-2.523-12.692-9.381-12.692-17.658 0-3.232 2.601-5.912 5.912-5.912 3.232 0 5.912 2.68 5.912 5.912 0 3.784 3.074 6.858 6.779 6.858 3.784 0 6.858-3.075 6.858-6.858 0-3.705-3.075-6.7-6.858-6.7-4.966 0-9.618-1.971-13.165-5.439-3.548-3.547-5.439-8.277-5.439-13.244 0-8.199 5.36-15.057 12.692-17.501v-2.523c0-3.232 2.68-5.912 5.912-5.912 3.311 0 5.912 2.68 5.912 5.912v2.523c7.41 2.444 12.771 9.302 12.771 17.501 0 3.232-2.602 5.912-5.912 5.912-3.232 0-5.912-2.68-5.912-5.912 0-3.705-3.075-6.78-6.858-6.78-3.705 0-6.779 3.075-6.779 6.78-.001 3.783 3.073 6.858 6.779 6.858z"/><path d="m366.233 164.974c3.264 0 5.912-2.648 5.912-5.912v-133.182l5.404 5.404c2.31 2.31 6.051 2.31 8.36 0 2.31-2.31 2.31-6.051 0-8.36l-15.496-15.497c-2.267-2.267-6.039-2.321-8.36 0l-15.497 15.497c-2.31 2.31-2.31 6.051 0 8.36 2.31 2.31 6.051 2.31 8.36 0l5.404-5.404v133.182c.001 3.264 2.649 5.912 5.913 5.912z"/><path d="m451.154 146.352c2.31-2.31 2.31-6.051 0-8.36l-15.497-15.497c-2.294-2.294-6.062-2.298-8.36 0l-15.497 15.496c-2.31 2.31-2.31 6.051 0 8.36 2.31 2.31 6.051 2.31 8.36 0l5.404-5.404v133.174c0 3.264 2.648 5.912 5.912 5.912s5.912-2.648 5.912-5.912v-133.174l5.404 5.404c2.312 2.311 6.052 2.31 8.362.001z"/><path d="m145.775 164.974c3.264 0 5.912-2.648 5.912-5.912v-133.179l5.397 5.4c2.319 2.319 6.06 2.3 8.36 0 2.31-2.31 2.31-6.051 0-8.36l-15.489-15.496c-2.281-2.281-6.031-2.33-8.36 0l-15.497 15.497c-2.31 2.31-2.31 6.051 0 8.36 2.31 2.31 6.051 2.31 8.36 0l5.404-5.404v133.182c0 3.264 2.648 5.912 5.913 5.912z"/><path d="m80.523 280.034c3.264 0 5.912-2.648 5.912-5.912v-133.175l5.404 5.404c1.155 1.155 2.664 1.732 4.18 1.732 1.517 0 3.025-.577 4.18-1.732 2.31-2.31 2.31-6.051 0-8.36l-15.497-15.497c-2.267-2.267-6.039-2.321-8.36 0l-15.497 15.497c-2.31 2.31-2.31 6.051 0 8.36 2.31 2.31 6.051 2.31 8.36 0l5.404-5.404v133.174c.002 3.265 2.65 5.913 5.914 5.913z"/></g><g transform="matrix(0.9375 0 0 0.9375 73 51)" id="L1_10"><path d="m26 20a4 4 0 1 0 -4-4 4 4 0 0 0 4 4zm0-6a2 2 0 1 1 -2 2 2 2 0 0 1 2-2z"/><path d="m26 24a8 8 0 0 0 1-15.931v-3.069a1 1 0 0 0 -2 0v3.069a8 8 0 0 0 1 15.931zm0-14a6 6 0 1 1 -6 6 6.006 6.006 0 0 1 6-6z"/><path d="m63 12h-26a1 1 0 0 0 0 2h25v44h-53a7 7 0 0 1 0-14 1 1 0 0 0 1-1v-8a1 1 0 0 0 -2 0v7.059a8.992 8.992 0 0 0 -6 3.3v-32.359a7.011 7.011 0 0 1 6-6.929v24.929a1 1 0 0 0 2 0v-17h5a1 1 0 0 0 0-2h-5v-7a1 1 0 0 0 -1-1 9.01 9.01 0 0 0 -9 9v38a9.01 9.01 0 0 0 9 9h54a1 1 0 0 0 1-1v-46a1 1 0 0 0 -1-1z"/><path d="m20.626 24.45a1 1 0 0 0 -1.26.642l-7.081 21.8-1.236 3.8a1 1 0 1 0 1.9.618l.962-2.96a4.869 4.869 0 0 0 .565.045 5.008 5.008 0 0 0 4.75-3.457l5.786-17.81a1 1 0 0 0 -1.9-.618l-5.787 17.808a3.007 3.007 0 0 1 -2.776 2.074l6.72-20.682a1 1 0 0 0 -.643-1.26z"/><path d="m34.675 44.318-5.786-17.809a1 1 0 0 0 -1.9.618l5.786 17.81a5.008 5.008 0 0 0 4.75 3.457 4.869 4.869 0 0 0 .565-.045l.962 2.96a1 1 0 1 0 1.9-.618l-1.236-3.8-7.082-21.799a1 1 0 0 0 -1.9.618l6.72 20.682a3.007 3.007 0 0 1 -2.776-2.074z"/><path d="m55 52a1 1 0 0 0 1-1v-34a1 1 0 0 0 -1-1h-10a1 1 0 0 0 -1 1v34a1 1 0 0 0 1 1zm-9-34h8v3h-3a1 1 0 0 0 0 2h3v4h-3a1 1 0 0 0 0 2h3v4h-3a1 1 0 0 0 0 2h3v4h-3a1 1 0 0 0 0 2h3v4h-3a1 1 0 0 0 0 2h3v3h-8z"/></g><g transform="matrix(0.11718704551458359 0 0 0.11718704551458359 150 35)" id="L1_11"><path d="m497.001 32h-226v-17c0-8.284-6.716-15-15-15s-15 6.716-15 15v17h-226c-8.284 0-15 6.716-15 15s6.716 15 15 15h16v345c0 8.284 6.716 15 15 15h121.972l-44.453 66.679c-4.595 6.893-2.732 16.206 4.161 20.801 6.862 4.576 16.185 2.763 20.801-4.16l55.547-83.32h103.944l55.547 83.321c4.61 6.914 13.928 8.743 20.801 4.16 6.894-4.595 8.756-13.908 4.16-20.801l-44.453-66.68h121.972c8.284 0 15-6.716 15-15v-345h16c8.284 0 15-6.716 15-15s-6.715-15-14.999-15zm-46 360c-25.845 0-373.284 0-390 0v-330h390z"/><path d="m211.001 317v30c0 8.284 6.716 15 15 15h180c8.284 0 15-6.716 15-15v-120c0-6.067-3.654-11.536-9.26-13.858-5.602-2.321-12.057-1.039-16.347 3.251l-52.355 52.355-50.33-25.165c-5.643-2.822-12.695-1.812-17.314 2.81l-60 60c-2.814 2.814-4.394 6.629-4.394 10.607zm90-35.729 30 15v35.729h-30zm90 50.729h-30v-38.787l30-30zm-150-8.787 30-30v38.787h-30z"/><path d="m241.001 167c0-41.353-33.642-74.997-74.995-75-.002 0-.003 0-.005 0s-.003 0-.005 0c-41.353.003-74.995 33.646-74.995 75 0 41.355 33.645 75 75 75s75-33.645 75-75zm-90-42.42v27.42h-27.42c4.527-12.764 14.656-22.893 27.42-27.42zm15 87.42c-19.555 0-36.228-12.541-42.42-30h42.42c8.284 0 15-6.716 15-15v-42.42c17.459 6.192 30 22.865 30 42.42 0 24.813-20.187 45-45 45z"/><path d="m316.001 122h60c8.284 0 15-6.716 15-15s-6.716-15-15-15h-60c-8.284 0-15 6.716-15 15s6.716 15 15 15z"/><path d="m316.001 182h60c8.284 0 15-6.716 15-15s-6.716-15-15-15h-60c-8.284 0-15 6.716-15 15s6.716 15 15 15z"/><path d="m166.001 272h-60c-8.284 0-15 6.716-15 15s6.716 15 15 15h60c8.284 0 15-6.716 15-15s-6.716-15-15-15z"/><path d="m166.001 332h-60c-8.284 0-15 6.716-15 15s6.716 15 15 15h60c8.284 0 15-6.716 15-15s-6.716-15-15-15z"/></g><path d="M62.58,60.594L41.313,39.329c3.712-4.18,5.988-9.66,5.988-15.677   c0-13.042-10.609-23.651-23.65-23.651C10.609,0.001,0,10.61,0,23.652c0,13.041,10.609,23.65,23.651,23.65   c6.016,0,11.497-2.276,15.677-5.988l21.265,21.267c0.273,0.273,0.634,0.411,0.993,0.411c0.36,0,0.721-0.138,0.994-0.411   C63.13,62.03,63.13,61.143,62.58,60.594z M23.651,44.492c-11.492,0-20.841-9.348-20.841-20.84S12.159,2.811,23.651,2.811   c11.491,0,20.84,9.349,20.84,20.841c0,5.241-1.958,10.023-5.163,13.689c-0.619,0.706-1.281,1.368-1.987,1.987   C33.675,42.534,28.892,44.492,23.651,44.492z" transform="matrix(0.9524868130683899 0 0 0.9524868130683899 80 270.0000002616083)" fill="#010002" id="L1_12"/><g transform="matrix(1.1577423810958862 0 0 1.1577423810958862 71.99999955835631 -18)" id="L1_13"><path d="M9.82,7.315h-3.5c-0.345,0-0.625,0.28-0.625,0.625V51.2c0,0.345,0.28,0.625,0.625,0.625h39.185   c0.345,0,0.625-0.28,0.625-0.625V7.94c0-0.345-0.28-0.625-0.625-0.625h-3.5c-0.345,0-0.625,0.28-0.625,0.625v5.746H10.445V7.94   C10.445,7.595,10.165,7.315,9.82,7.315z M42.005,14.936c0.345,0,0.625-0.28,0.625-0.625V8.565h2.25v42.01H6.945V8.565h2.25v5.746   c0,0.345,0.28,0.625,0.625,0.625C9.82,14.936,42.005,14.936,42.005,14.936z" fill="#010002"/><path d="M32.496,0H19.33c-0.345,0-0.625,0.28-0.625,0.625v3.869h-5.958c-0.345,0-0.625,0.28-0.625,0.625   v4.596c0,0.345,0.28,0.625,0.625,0.625h9.821c0.345,0,0.625-0.28,0.625-0.625V5.744h5.438v3.971c0,0.345,0.28,0.625,0.625,0.625   h9.823c0.345,0,0.625-0.28,0.625-0.625V5.119c0-0.345-0.28-0.625-0.625-0.625h-5.958V0.625C33.121,0.28,32.84,0,32.496,0z    M38.453,5.744V9.09H29.88V5.119c0-0.345-0.28-0.625-0.625-0.625h-6.687c-0.345,0-0.625,0.28-0.625,0.625V9.09h-8.571V5.744h5.958   c0.345,0,0.625-0.28,0.625-0.625V1.25h11.916v3.869c0,0.345,0.28,0.625,0.625,0.625H38.453z" fill="#010002"/><path d="M9.195,29.467v2.975c0,0.345,0.28,0.625,0.625,0.625h32.185c0.345,0,0.625-0.28,0.625-0.625v-2.975   c0-0.345-0.28-0.625-0.625-0.625H9.82C9.475,28.842,9.195,29.122,9.195,29.467z M10.445,30.092H41.38v1.725H10.445V30.092z" fill="#010002"/><path d="M42.005,35.031H9.82c-0.345,0-0.625,0.28-0.625,0.625v2.979c0,0.345,0.28,0.625,0.625,0.625h32.185   c0.345,0,0.625-0.28,0.625-0.625v-2.979C42.63,35.312,42.349,35.031,42.005,35.031z M41.38,38.01H10.445v-1.729H41.38V38.01z" fill="#010002"/><path d="M42.005,41.223H9.82c-0.345,0-0.625,0.28-0.625,0.625v2.979c0,0.345,0.28,0.625,0.625,0.625h32.185   c0.345,0,0.625-0.28,0.625-0.625v-2.979C42.63,41.503,42.349,41.223,42.005,41.223z M41.38,44.201H10.445v-1.729H41.38V44.201z" fill="#010002"/><path d="M25.913,26.238c2.685,0,4.871-2.187,4.871-4.873c0-2.684-2.185-4.869-4.871-4.869   s-4.871,2.185-4.871,4.869C21.042,24.052,23.227,26.238,25.913,26.238z M25.913,17.592c2.082,0,3.776,1.692,3.776,3.773   c0,2.083-1.694,3.777-3.776,3.777s-3.777-1.694-3.777-3.777C22.136,19.284,23.83,17.592,25.913,17.592z" fill="#010002"/></g><g transform="matrix(1.0469194650650024 0 0 1.0469194650650024 306.9999990095671 51)" id="L1_14"><path d="M29.299,17.922c0.339,0.564,0.963,0.902,1.748,0.902c0.002,0,0.004,0,0.005,0l16.915-0.575    c0.73-0.025,1.356-0.396,1.674-0.992s0.277-1.323-0.11-1.943l-8.955-14.36C40.197,0.348,39.602,0,38.942,0    c-0.702,0-1.334,0.401-1.687,1.067L35.6,4.168c-2.091-0.516-4.211-0.777-6.31-0.777c-9.782,0-16.242,5.648-16.308,5.706    c-0.507,0.452-0.927,0.986-1.247,1.589c-1.11,2.094-0.801,4.694,0.776,6.474c1.087,1.217,2.646,1.915,4.278,1.915    c1.397,0,2.742-0.51,3.749-1.404c0.14-0.116,3.464-2.832,8.641-2.832c0.24,0,0.481,0.006,0.724,0.018l-0.611,1.145    C28.955,16.636,28.957,17.354,29.299,17.922z M29.18,11.84c-6.144,0-10.125,3.164-10.595,3.556    c-1.073,0.952-2.88,0.836-3.831-0.229c-0.748-0.844-0.896-2.079-0.369-3.073c0.152-0.287,0.352-0.541,0.587-0.75    c0.057-0.049,5.771-4.952,14.318-4.952c1.988,0,4.004,0.266,5.983,0.789c1.05,0.28,2.25-0.242,2.753-1.188L39.02,4.13    l6.975,11.183L32.82,15.761l0.421-0.788c0.324-0.609,0.34-1.295,0.042-1.88c-0.296-0.583-0.853-0.972-1.529-1.068    C30.899,11.902,30.033,11.84,29.18,11.84z" fill="#010002"/><path d="M5.62,39.287c3.326,13.244,14.845,17.625,14.959,17.667c0.636,0.236,1.305,0.356,1.986,0.357h0.001    c2.369,0,4.521-1.493,5.354-3.72c1.092-2.953-0.413-6.25-3.32-7.336c-0.048-0.019-4.466-1.857-6.866-6.947l1.3,0.002    c0.732,0,1.369-0.349,1.706-0.934c0.338-0.584,0.321-1.311-0.043-1.941l-8.439-14.673c-0.365-0.634-0.986-1.013-1.663-1.013    c-0.672,0-1.292,0.375-1.662,1.008L0.447,36.402c-0.365,0.633-0.381,1.36-0.043,1.945c0.337,0.584,0.975,0.933,1.702,0.933    L5.62,39.287z M10.59,24.88l6.573,11.428l-0.895-0.002c-0.69,0-1.301,0.307-1.678,0.843c-0.375,0.533-0.458,1.208-0.227,1.852    c2.644,7.354,8.852,9.93,9.15,10.05c1.398,0.522,2.112,2.092,1.594,3.493c-0.394,1.056-1.416,1.766-2.541,1.766    c-0.325,0-0.643-0.058-0.938-0.167c-0.104-0.04-10.419-4.103-13.194-15.981c-0.245-1.065-1.251-1.871-2.341-1.875l-2.11-0.004    L10.59,24.88z" fill="#010002"/><path d="M55.322,24.116c-0.281-0.616-0.669-1.174-1.154-1.661c-1.638-1.639-4.284-2.126-6.419-1.155    c-2.857,1.316-4.123,4.711-2.836,7.536c0.02,0.048,1.846,4.468-0.058,9.765l-0.915-0.917c-0.393-0.394-0.891-0.611-1.402-0.611    c-0.849,0-1.576,0.59-1.809,1.465l-4.407,16.339c-0.169,0.62-0.059,1.246,0.301,1.717c0.349,0.456,0.89,0.717,1.485,0.717    c0.184,0,0.373-0.025,0.561-0.075l16.356-4.356c0.706-0.19,1.231-0.693,1.405-1.345c0.175-0.652-0.03-1.35-0.545-1.863    l-2.479-2.489C60.479,35.375,55.367,24.212,55.322,24.116z M50.621,45.986c-0.582,0.928-0.441,2.21,0.328,2.983l1.489,1.496    l-12.735,3.391l3.434-12.729l0.629,0.631c0.399,0.401,0.915,0.622,1.453,0.622c0.769,0,1.459-0.451,1.801-1.177    c3.34-7.086,0.762-13.285,0.637-13.577c-0.619-1.358-0.015-2.974,1.341-3.598c1.005-0.459,2.276-0.225,3.047,0.547    c0.231,0.231,0.415,0.496,0.548,0.787C52.637,25.462,57.065,35.615,50.621,45.986z" fill="#010002"/></g><path d="M40.224,0H19.785c-3.584,0-6.5,2.893-6.5,6.449v47.113c0,3.554,2.916,6.448,6.5,6.448h20.438   c3.584,0,6.501-2.894,6.501-6.448V6.449C46.725,2.893,43.808,0,40.224,0z M44.576,53.562c0,2.37-1.952,4.299-4.352,4.299H19.785   c-2.399,0-4.351-1.929-4.351-4.299V6.449h0.001c0-2.371,1.952-4.299,4.351-4.299h20.438c2.399,0,4.352,1.928,4.352,4.299   C44.577,6.449,44.577,53.562,44.576,53.562z M42.366,6.315h-24.72c-0.297,0-0.537,0.24-0.537,0.537v41.753   c0,0.296,0.24,0.538,0.537,0.538h24.72c0.297,0,0.538-0.241,0.538-0.538V6.852C42.903,6.555,42.663,6.315,42.366,6.315z    M41.829,48.067H18.182V7.389h23.646C41.828,7.389,41.828,48.067,41.829,48.067z M30.006,50.038c-1.811,0-3.285,1.473-3.285,3.284   s1.474,3.284,3.285,3.284s3.283-1.474,3.283-3.284C33.289,51.511,31.817,50.038,30.006,50.038z M30.006,55.531   c-1.219,0-2.21-0.991-2.21-2.209s0.991-2.21,2.21-2.21c1.218,0,2.209,0.992,2.209,2.21C32.215,54.54,31.224,55.531,30.006,55.531z    M26.451,4.204c0-0.219,0.214-0.396,0.478-0.396h6.151c0.264,0,0.477,0.177,0.477,0.396S33.345,4.6,33.081,4.6H26.93   C26.667,4.6,26.452,4.423,26.451,4.204z" transform="matrix(0.999833345413208 0 0 0.999833345413208 11.000000839093559 100)" fill="#010002" id="L1_15"/><path d="M39.312,20.355h-8.597L40.809,2.571c0.347-0.61,0.375-1.254,0.077-1.767   C40.587,0.293,40.014,0,39.312,0H27.026c-1.147,0-2.388,0.779-2.884,1.812l-13.03,27.063c-0.3,0.62-0.292,1.267,0.023,1.773   c0.313,0.505,0.887,0.801,1.575,0.812l10.636,0.143c0.111,0.001,0.164,0.024,0.164,0.018c0.004,0.014,0.006,0.073-0.034,0.176   l-7.344,18.364c-0.182,0.454-0.351,0.976-0.044,1.426l0.062,0.089c0.129,0.188,0.358,0.308,0.584,0.308h0.11   c0.502,0,0.851-0.385,1.139-0.745L40.542,22.91c0.646-0.811,0.441-1.476,0.321-1.729C40.743,20.932,40.35,20.355,39.312,20.355z    M20.775,44.211l4.309-11.77c0.253-0.629,0.206-1.274-0.127-1.771c-0.332-0.499-0.911-0.791-1.587-0.8l-10.635-0.143   c-0.034,0-0.062-0.003-0.083-0.003c-0.007,0-0.013,0-0.018,0.001c0.007-0.025,0.019-0.058,0.037-0.098L25.704,2.564   c0.206-0.427,0.849-0.83,1.322-0.83h12.266L29.198,19.519c-0.347,0.611-0.375,1.255-0.078,1.765   c0.297,0.512,0.87,0.805,1.573,0.805h8.281L20.775,44.211z" transform="matrix(1.1542012691497803 0 0 1.1542012691497803 228 31)" fill="#030104" id="L1_16"/><path d="M12.94,26.221c-3.98,0-7.96,0-11.94,0c-0.545,0-1,0.455-1,1c0,6.218,0,12.436,0,18.654   c0,0.746,0,1.491,0,2.237c0,0.545,0.455,1,1,1c3.98,0,7.96,0,11.94,0c0.273,0,0.476-0.102,0.633-0.244   c0.024-0.018,0.049-0.033,0.071-0.053c0.018-0.02,0.032-0.043,0.048-0.064c0.144-0.158,0.247-0.362,0.247-0.638   c0-6.218,0-12.436,0-18.654c0-0.746,0-1.491,0-2.237C13.94,26.676,13.485,26.221,12.94,26.221z M2,28.221c3.313,0,6.627,0,9.94,0   c0,5.885,0,11.769,0,17.654c0,0.413,0,0.825,0,1.237c-3.313,0-6.627,0-9.94,0c0-5.885,0-11.769,0-17.654   C2,29.046,2,28.633,2,28.221z M48.711,34.767c0-0.342,0-0.683,0-1.025c0.928-0.664,0.907-2.425,0.911-3.459   c0.004-0.943,0.045-1.912-0.572-2.679c-0.164-0.203-0.383-0.321-0.619-0.402c0-0.063,0-0.126,0-0.189   c0.03-0.003,0.059-0.005,0.089-0.008c0.402-0.035,0.901-0.275,0.964-0.734c0.161-1.167,0.074-2.353,0.087-3.527   c0.016-1.515-0.476-2.767-1.748-3.647c-1.318-0.912-3.153-0.71-4.684-0.735c-3.415-0.057-6.831-0.121-10.246-0.185   c0.703-0.893,1.405-1.787,2.106-2.682c1.358-1.736,2.742-3.374,3.678-5.384c0.93-1.997,1.654-4.491,0.797-6.643   c-0.603-1.514-1.916-2.644-3.545-2.895c-1.56-0.24-3.17,0.208-4.291,1.348c-0.485,0.494-0.763,1.097-1.089,1.694   c-0.341,0.624-0.71,1.234-1.083,1.839c-2.25,3.654-4.71,7.183-7.159,10.706c-2.318,3.335-4.662,6.653-7.038,9.948   c-0.006,0.008-0.005,0.018-0.01,0.026c-0.028,0.05-0.045,0.108-0.064,0.166c-0.033,0.092-0.057,0.181-0.057,0.279   c0,0.012-0.007,0.021-0.007,0.033c0,6.221,0,12.442,0,18.663c0,0.946,0,1.893,0,2.839c0,0.545,0.455,1,1,1   c6.102,0,12.205,0,18.307,0c2.924,0,5.848,0,8.772,0c1.756,0,3.407-0.741,4.349-2.296c0.521-0.86,0.432-2.152,0.519-3.125   c0.021-0.238,0.043-0.476,0.064-0.714c0.02-0.226,0.04-0.451,0.061-0.677c0.007-0.075,0.014-0.151,0.021-0.226   c0.004-0.008,0.007-0.011,0.013-0.027c0.002-0.006,0.004-0.011,0.006-0.017c1.312-0.586,1.354-2.589,1.368-3.807   c0.01-0.905,0.094-1.986-0.315-2.811C49.156,35.131,48.956,34.924,48.711,34.767z M47.908,36.508c-0.006,0-0.012-0.002-0.018-0.003   c0.065-0.005,0.129-0.001,0.203-0.019C48.036,36.5,47.948,36.505,47.908,36.508z M47.694,29.056c-0.001,0-0.002-0.001-0.003-0.002   c0.028,0,0.056,0.001,0.083,0.003C47.737,29.055,47.712,29.055,47.694,29.056z M47.243,40.268c0.057-0.03,0.086-0.045,0.103-0.054   c-0.003,0.004-0.007,0.009-0.009,0.012C47.325,40.228,47.298,40.239,47.243,40.268z M47.462,40.043   c-0.026,0.054-0.035,0.078-0.038,0.091c-0.008,0.004-0.024,0.017-0.059,0.055c-0.013,0.014-0.011,0.015-0.018,0.023   c-0.03,0.013-0.094,0.041-0.139,0.047c-0.352,0.048-0.589,0.398-0.698,0.698c-0.52,1.428-0.47,3.148-0.605,4.654   c0,0.005,0,0.006-0.001,0.011c-0.005,0.019-0.011,0.039-0.019,0.072c-0.001,0.003-0.111,0.21-0.126,0.235   c-0.145,0.239-0.378,0.428-0.588,0.606c-0.372,0.316-0.928,0.579-1.421,0.579c-0.221,0-0.443,0-0.664,0c-3.003,0-6.007,0-9.01,0   c-5.648,0-11.296,0-16.944,0c0-5.888,0-11.775,0-17.663c0-0.842,0-1.685,0-2.527c3.987-5.532,7.925-11.108,11.696-16.792   c1.009-1.521,2.01-3.052,2.94-4.623c0.307-0.518,0.597-1.044,0.868-1.581c0.075-0.149,0.166-0.288,0.261-0.424   c-0.124,0.177,0.153-0.17,0.21-0.228c0.056-0.057,0.116-0.11,0.175-0.163c0.025-0.022,0.022-0.021,0.031-0.03   c0.008-0.006,0.003-0.002,0.015-0.01c0.148-0.109,0.308-0.202,0.47-0.287c0.042-0.022,0.085-0.041,0.127-0.06   c0.011-0.002,0.114-0.044,0.14-0.054c0.148-0.052,0.301-0.091,0.454-0.125c0.043-0.009,0.086-0.016,0.13-0.023   c0.012,0,0.119-0.015,0.149-0.018c0.183-0.015,0.367-0.013,0.55-0.003c0.044,0.002,0.087,0.008,0.131,0.012   c0.01,0.003,0.119,0.019,0.149,0.025c0.155,0.03,0.306,0.074,0.456,0.123c0.019,0.006,0.09,0.034,0.128,0.048   c0.047,0.022,0.095,0.043,0.141,0.067c0.166,0.084,0.322,0.185,0.473,0.294c-0.181-0.13,0.168,0.159,0.225,0.216   c0.058,0.059,0.113,0.121,0.167,0.184c0.013,0.015,0.009,0.009,0.017,0.019c0.007,0.011,0.006,0.012,0.031,0.047   c0.279,0.394,0.325,0.545,0.431,0.906c0.137,0.463,0.139,0.621,0.146,1.091c0.008,0.531-0.068,1.005-0.186,1.517   c-0.489,2.127-1.655,3.913-2.966,5.604c-0.789,1.017-1.583,2.03-2.378,3.042c-0.352,0.448-0.704,0.895-1.056,1.343   c-0.409,0.519-1.009,1.099-0.787,1.83c0.453,1.495,2.06,1.298,3.27,1.32c1.965,0.037,3.929,0.073,5.894,0.108   c1.823,0.033,3.646,0.072,5.469,0.091c1.076,0.011,2.118,0.361,2.422,1.497c0.164,0.611,0.042,1.38,0.046,2.011   c0.002,0.397,0.001,0.793-0.007,1.189c-0.045,0.004-0.091,0.008-0.136,0.012c-0.543,0.047-1,0.419-1,1c0,0.653,0,1.306,0,1.959   c0,0.545,0.455,1,1,1c0.052,0,0.103-0.002,0.155-0.003c0.007,0.09,0.007,0.182,0.011,0.263c0.016,0.321,0.024,0.643,0.025,0.964   c0.002,0.552,0.042,1.171-0.055,1.714c-0.002,0.012-0.003,0.013-0.005,0.023c-0.661,0.049-0.935,0.595-0.852,1.11   c0,0.798,0,1.595,0,2.393c0,0.491,0.376,0.891,0.848,0.969c0.002,0.009,0.006,0.017,0.007,0.025   c0.067,0.581,0.052,1.198,0.045,1.784C47.601,38.837,47.697,39.555,47.462,40.043z" transform="matrix(1.2090680599212646 0 0 1.2090680599212646 263 111.99999988930654)" fill="#000000" id="L1_17"/><g transform="matrix(1.4334520101547241 0 0 1.4334520101547241 83 135)" id="L1_18"><path d="M41.514,9.344c-0.639-2.572-2.279-4.899-4.324-6.555c-1.688-1.369-3.74-2.137-5.914-2.19    c-1.938-0.047-3.839,0.499-5.604,1.251c-1.669,0.71-3.195,1.675-4.728,2.633c-1.055-0.704-2.035-1.508-3.119-2.174    c-1.644-1.01-3.461-1.784-5.382-2.042c-2.328-0.313-4.615,0.232-6.64,1.397c-1.699,0.977-3.199,2.303-4.19,4.001    c-2.776,4.754-1.637,10.613,0.906,15.19c0.116,0.209,0.465,0.281,0.628,0.082c2.301-2.826,4.603-5.655,6.906-8.483    c0.31-0.328,0.847-0.236,1.081,0.139c0.374,0.602,0.674,1.266,1.007,1.892c0.671,1.261,1.341,2.522,2.012,3.784    c0.152,0.286,0.678,0.252,0.731-0.096c0.368-2.418,0.737-4.835,1.105-7.253c0.173-1.138,0.294-2.299,0.527-3.426    c0.115-0.555,1.032-0.482,1.264-0.077c0.087,0.151,0.075,0.401,0.099,0.567c0.047,0.33,0.095,0.66,0.142,0.989    c0.085,0.594,0.17,1.187,0.255,1.781c0.18,1.253,0.36,2.507,0.54,3.76c0.35,2.441,0.701,4.881,1.051,7.322    c0.056,0.389,0.706,0.379,0.771,0c0.155-0.891,0.31-1.782,0.465-2.673c0.07-0.403,0.077-0.917,0.244-1.292    c0.203-0.452,0.83-0.36,1.218-0.36c1.993,0,3.987,0,5.981,0c3.987,0,7.976,0,11.965,0c0.19,0,0.321-0.125,0.386-0.294    C41.843,14.694,42.169,11.98,41.514,9.344z M40.225,16.711c-4.158,0-8.318,0-12.479,0c-1.062,0-2.127,0-3.189,0    c-0.951,0-2.01-0.13-2.947,0.046c-0.833,0.157-1.055,0.904-1.179,1.62c-0.047,0.272-0.095,0.544-0.142,0.816    c-0.281-1.96-0.562-3.921-0.844-5.881c-0.199-1.385-0.398-2.77-0.596-4.156c-0.127-0.882-0.024-2.123-0.882-2.654    c-0.537-0.332-1.368-0.26-1.836,0.162c-0.276,0.25-0.382,0.546-0.436,0.907c-0.109,0.719-0.219,1.437-0.328,2.156    c-0.36,2.363-0.72,4.727-1.08,7.09c-0.668-1.256-1.336-2.513-2.004-3.769c-0.308-0.578-0.547-1.255-1.216-1.493    c-0.502-0.179-1.037-0.108-1.442,0.225c-0.032,0.014-0.062,0.043-0.092,0.071c-0.014,0.014-0.032,0.021-0.045,0.035    c-0.002,0.002-0.002,0.005-0.005,0.008c-2.184,2.681-4.366,5.361-6.549,8.042c-2.108-4.045-3.038-8.917-0.998-13.178    c1.826-3.812,6.347-6.3,10.538-5.684c1.841,0.27,3.554,1.062,5.122,2.036c1.086,0.675,2.063,1.501,3.132,2.196    c0.116,0.075,0.288,0.072,0.404,0c2.871-1.791,5.841-3.646,9.31-3.887c5.055-0.352,9.367,3.839,10.404,8.593    C41.335,12.251,40.983,14.573,40.225,16.711z" fill="#030104"/><path d="M39.517,18.889c-5.547,0-11.094,0-16.642,0c-0.018,0-0.028,0.007-0.045,0.009    c-0.157-0.003-0.307,0.079-0.342,0.285c-0.398,2.293-0.797,4.584-1.197,6.877c-0.091,0.523-0.183,1.049-0.273,1.572    c-0.046,0.262-0.091,0.523-0.137,0.785c-0.034,0.197-0.033,0.471-0.162,0.637c-0.336,0.433-1.126,0.295-1.232-0.242    c-0.217-1.101-0.321-2.234-0.48-3.342c-0.169-1.182-0.339-2.359-0.508-3.539c-0.329-2.294-0.658-4.588-0.987-6.882    c-0.055-0.385-0.713-0.382-0.771,0c-0.226,1.488-0.453,2.977-0.68,4.465c-0.108,0.712-0.217,1.423-0.325,2.135    c-0.067,0.44-0.514,0.549-0.893,0.452c-0.486-0.123-0.711-0.94-0.919-1.33c-0.37-0.695-0.739-1.39-1.109-2.084    c-0.708-1.332-1.416-2.663-2.124-3.995c-0.113-0.212-0.467-0.279-0.628-0.081c-2.091,2.568-4.183,5.137-6.274,7.705    C3.68,22.449,3.618,22.642,3.726,22.8c2.151,3.139,4.909,5.887,7.479,8.683c3.045,3.312,6.066,6.645,8.977,10.077    c0.132,0.156,0.434,0.158,0.566,0c3.197-3.853,6.611-7.512,10.041-11.153c1.621-1.722,3.246-3.44,4.848-5.181    c1.616-1.758,3.086-3.631,4.227-5.735C40.005,19.227,39.826,18.889,39.517,18.889z M34.955,24.786    c-1.604,1.743-3.232,3.463-4.856,5.187c-3.289,3.494-6.558,7.011-9.635,10.692c-2.759-3.239-5.609-6.397-8.489-9.528    c-1.265-1.377-2.532-2.754-3.78-4.146c-1.267-1.413-2.528-2.826-3.619-4.381c1.9-2.334,3.8-4.667,5.7-7    c0.74,1.391,1.479,2.783,2.22,4.174c0.431,0.812,0.863,1.621,1.294,2.433c0.222,0.416,0.682,0.668,1.142,0.709    c0.45,0.041,0.848-0.09,1.197-0.371c0.507-0.408,0.47-1.285,0.557-1.858c0.144-0.943,0.287-1.886,0.431-2.829    c0.251,1.753,0.502,3.505,0.754,5.258c0.188,1.311,0.376,2.622,0.564,3.932c0.094,0.655,0.188,1.312,0.282,1.968    c0.045,0.315,0.241,0.604,0.497,0.788c0.523,0.377,1.242,0.365,1.788,0.046c0.281-0.164,0.458-0.438,0.563-0.738    c0.197-0.571,0.225-1.269,0.328-1.864c0.438-2.521,0.878-5.045,1.314-7.566c5.201,0,10.402,0,15.604,0    C37.731,21.538,36.408,23.207,34.955,24.786z" fill="#030104"/></g><path d="M34.53,18.54H6.136C2.753,18.54,0,21.427,0,24.976v12.632c0,3.548,2.753,6.435,6.136,6.435H34.53   c3.383,0,6.136-2.887,6.136-6.435V24.976C40.666,21.427,37.913,18.54,34.53,18.54z M38.554,37.607c0,2.384-1.805,4.323-4.024,4.323   H6.136c-2.014,0-3.671-1.602-3.963-3.68c1.393-1.184,5.668-4.402,9.591-3.016c3.567,1.263,6.374-0.687,8.849-2.408   c1.784-1.241,3.469-2.413,5.372-2.538c4.971-0.327,12.45-0.002,12.525,0.001l0.044-0.999C38.554,29.29,38.554,37.607,38.554,37.607   z M38.554,28.288c-0.574-0.024-7.721-0.322-12.7,0.003c-2.458,0.162-4.453,1.55-6.383,2.893c-2.383,1.656-4.441,3.085-7.039,2.165   c-4.027-1.428-8.064,0.77-10.319,2.401V24.976c-0.001-2.384,1.804-4.323,4.023-4.323H34.53c2.219,0,4.024,1.938,4.024,4.322   C38.554,24.975,38.554,28.288,38.554,28.288z M46.001,18.957v19.667c0,0.553-0.447,1-1,1s-1-0.447-1-1V18.957c0-2.206-1.794-4-4-4   H8.668c-0.553,0-1-0.447-1-1s0.447-1,1-1h31.333C43.31,12.957,46.001,15.648,46.001,18.957z M51.167,13.124v19.667   c0,0.553-0.447,1-1,1s-1-0.447-1-1V13.124c0-2.206-1.794-4-4-4H13.834c-0.553,0-1-0.447-1-1s0.447-1,1-1h31.333   C48.476,7.124,51.167,9.815,51.167,13.124z M8.668,22.374c-2.159,0-3.916,1.757-3.916,3.916s1.757,3.916,3.916,3.916   s3.916-1.757,3.916-3.916S10.827,22.374,8.668,22.374z M8.668,28.206c-1.057,0-1.916-0.859-1.916-1.916s0.859-1.916,1.916-1.916   c1.057,0,1.916,0.859,1.916,1.916S9.725,28.206,8.668,28.206z" transform="matrix(1.172630786895752 0 0 1.172630786895752 141 203.00000010735755)" fill="#030104" id="L1_19"/><path d="M32.268,4.061c-5.307-3.215-11.985-3.938-17.967-2.522C8.943,2.808,3.727,6.154,1.31,11.239   c-1.141,2.401-1.553,5.069-1.171,7.7c0.378,2.601,1.562,4.961,3.206,6.99c3.152,3.891,8.078,6.172,12.949,6.925   c0.711,0.11,1.426,0.189,2.143,0.243c0.319,0.024,0.639,0.038,0.959,0.049c0.319,0.011,0.74-0.066,1.045,0.024   c1.544,0.457,3.06,1.023,4.538,1.66c2.863,1.235,5.634,2.74,8.185,4.536c0.423,0.298,1.142,0.101,1.368-0.359   c1.163-2.365,1.715-5.067,2.27-7.626c0.479-2.211,0.964-4.481,1.154-6.744c1.513-2.272,2.375-4.896,2.4-7.635   C40.321,11.483,36.855,6.84,32.268,4.061z M35.934,24.884c-0.042,0.378-0.049,0.404-0.096,0.729   c-0.113,0.78-0.247,1.557-0.388,2.333c-0.34,1.868-0.736,3.727-1.2,5.569c-0.287,1.144-0.614,2.403-1.028,3.501   c-2.674-1.769-5.543-3.235-8.509-4.45c-0.823-0.337-1.657-0.644-2.499-0.931c-0.411-0.14-0.826-0.269-1.242-0.395   c-0.45-0.136-0.918-0.081-1.383-0.09c-1.544-0.03-3.074-0.229-4.579-0.572c-5.101-1.165-10.244-4.367-12.227-9.414   c-0.903-2.299-1.03-4.807-0.379-7.186c0.663-2.423,2.151-4.519,3.984-6.202c4.369-4.012,10.69-5.397,16.464-4.782   c7.298,0.777,15.452,5.912,15.503,14.009c0,0.001,0.001,0.002,0.001,0.004c-0.012,1.256-0.221,2.46-0.616,3.653   c-0.192,0.583-0.447,1.137-0.73,1.681c-0.281,0.54-0.825,1.104-0.985,1.685C35.952,24.291,35.964,24.61,35.934,24.884z" transform="matrix(1.4867677688598633 0 0 1.4867677688598633 130 200)" fill="#010002" id="L1_20"/><path d="M32.268,4.061c-5.307-3.215-11.985-3.938-17.967-2.522C8.943,2.808,3.727,6.154,1.31,11.239   c-1.141,2.401-1.553,5.069-1.171,7.7c0.378,2.601,1.562,4.961,3.206,6.99c3.152,3.891,8.078,6.172,12.949,6.925   c0.711,0.11,1.426,0.189,2.143,0.243c0.319,0.024,0.639,0.038,0.959,0.049c0.319,0.011,0.74-0.066,1.045,0.024   c1.544,0.457,3.06,1.023,4.538,1.66c2.863,1.235,5.634,2.74,8.185,4.536c0.423,0.298,1.142,0.101,1.368-0.359   c1.163-2.365,1.715-5.067,2.27-7.626c0.479-2.211,0.964-4.481,1.154-6.744c1.513-2.272,2.375-4.896,2.4-7.635   C40.321,11.483,36.855,6.84,32.268,4.061z M35.934,24.884c-0.042,0.378-0.049,0.404-0.096,0.729   c-0.113,0.78-0.247,1.557-0.388,2.333c-0.34,1.868-0.736,3.727-1.2,5.569c-0.287,1.144-0.614,2.403-1.028,3.501   c-2.674-1.769-5.543-3.235-8.509-4.45c-0.823-0.337-1.657-0.644-2.499-0.931c-0.411-0.14-0.826-0.269-1.242-0.395   c-0.45-0.136-0.918-0.081-1.383-0.09c-1.544-0.03-3.074-0.229-4.579-0.572c-5.101-1.165-10.244-4.367-12.227-9.414   c-0.903-2.299-1.03-4.807-0.379-7.186c0.663-2.423,2.151-4.519,3.984-6.202c4.369-4.012,10.69-5.397,16.464-4.782   c7.298,0.777,15.452,5.912,15.503,14.009c0,0.001,0.001,0.002,0.001,0.004c-0.012,1.256-0.221,2.46-0.616,3.653   c-0.192,0.583-0.447,1.137-0.73,1.681c-0.281,0.54-0.825,1.104-0.985,1.685C35.952,24.291,35.964,24.61,35.934,24.884z" transform="matrix(1.4867677688598633 0 0 1.4867677688598633 204 90.00000093013733)" fill="#010002" id="L1_21"/><path d="M34.583,14.133c-0.729-1.003-1.417-1.952-1.988-2.876c-1.549-2.507-1.86-5.577-1.849-7.712   c0.006-1.349-0.299-2.341-0.903-2.95c-0.883-0.887-2.335-0.781-3.808,0.309c-3.979,2.95-9.278,7.27-11.927,11.098   c-5.16,7.455-6.84,15.805-4.859,24.147c1.283,5.408,5.576,9.105,8.953,11.255c1.736,1.104,3.787,2.04,4.478,2.04h0.006l0.457-0.02   l0.513-0.636l-0.141-0.739c-0.273-1.349-0.789-2.989-1.334-4.729c-3.362-10.756-2.23-19.378,0.069-24.359   c-1.102,5.074-1.569,14.006,1.884,23.782c0.594,1.686,1.056,3.333,1.372,4.893l0.119,0.623c0.034,0.197,0.227,0.84,1.227,0.84   c0.83,0,2.573-0.448,4.438-1.438c5.163-2.738,8.331-6.57,9.166-11.085C42.563,25.131,38.139,19.034,34.583,14.133z M38.761,36.262   c-0.929,5.024-5.015,8.146-8.278,9.879c-1.355,0.72-2.558,1.078-3.283,1.19l-0.006-0.028c-0.332-1.645-0.815-3.369-1.438-5.133   c-4.333-12.268-2.455-23.457-0.486-26.723c0.133-0.223,0.489-0.814,0.16-1.393l-0.32-0.446h-0.479c-0.298,0-0.592,0.126-0.95,0.41   c-3.128,2.478-8.264,13.426-3.14,29.813c0.37,1.178,0.75,2.387,1.028,3.446c-0.571-0.259-1.443-0.694-2.441-1.329   c-3.105-1.977-7.051-5.352-8.202-10.199c-1.865-7.854-0.274-15.729,4.599-22.771c2.519-3.637,7.665-7.823,11.539-10.695   c0.689-0.512,1.1-0.588,1.279-0.588c0.123,0,0.205,0.033,0.283,0.111c0.123,0.124,0.406,0.54,0.402,1.729   c-0.021,3.428,0.688,6.33,2.104,8.624c0.601,0.969,1.306,1.941,2.062,2.983C36.553,19.777,40.738,25.543,38.761,36.262z" transform="matrix(1.213494062423706 0 0 1.213494062423706 132.99999922230904 134)" fill="#010002" id="L1_22"/><path d="M0,26.75V11.908c0-4.59,3.735-8.325,8.325-8.325h13.681c4.591,0,8.327,3.735,8.327,8.325v2.56   c0,4.59-3.735,8.325-8.325,8.325H8.518L0,26.75z M8.325,5.439c-3.567,0-6.469,2.902-6.469,6.469v11.933l6.253-2.905h13.899   c3.567,0,6.469-2.902,6.469-6.469v-2.56c0-3.567-2.903-6.469-6.471-6.469H8.325V5.439z M8.937,11.767   c0.975,0,1.765,0.79,1.765,1.765s-0.79,1.765-1.765,1.765s-1.765-0.79-1.765-1.765S7.962,11.767,8.937,11.767z M21.395,11.767   c0.975,0,1.765,0.79,1.765,1.765s-0.79,1.765-1.765,1.765s-1.765-0.79-1.765-1.765S20.42,11.767,21.395,11.767z M15.165,11.767   c0.975,0,1.765,0.79,1.765,1.765s-0.79,1.765-1.765,1.765s-1.765-0.79-1.765-1.765S14.19,11.767,15.165,11.767z" transform="matrix(1.9780436754226685 0 0 1.9780436754226685 212 -22.000000362190747)" fill="#010002" id="L1_23"/></defs><g fi:class="KUsePattern"><pattern id="pattern_L1_0" width="350" height="350" patternUnits="userSpaceOnUse"><use xlink:href="#L1_0" x="-350" y="-350"/><use xlink:href="#L1_0" x="0" y="-350"/><use xlink:href="#L1_0" x="350" y="-350"/><use xlink:href="#L1_0" x="-350" y="0"/><use xlink:href="#L1_0" x="0" y="0"/><use xlink:href="#L1_0" x="350" y="0"/><use xlink:href="#L1_0" x="-350" y="350"/><use xlink:href="#L1_0" x="0" y="350"/><use xlink:href="#L1_0" x="350" y="350"/></pattern><rect x="0" y="0" width="100%" height="100%" fill="url(#pattern_L1_0)"/></g><g fi:class="KUsePattern"><pattern id="pattern_L1_1" width="350" height="350" patternUnits="userSpaceOnUse"><use xlink:href="#L1_1" x="-350" y="-350"/><use xlink:href="#L1_1" x="0" y="-350"/><use xlink:href="#L1_1" x="350" y="-350"/><use xlink:href="#L1_1" x="-350" y="0"/><use xlink:href="#L1_1" x="0" y="0"/><use xlink:href="#L1_1" x="350" y="0"/><use xlink:href="#L1_1" x="-350" y="350"/><use xlink:href="#L1_1" x="0" y="350"/><use xlink:href="#L1_1" x="350" y="350"/></pattern><rect x="0" y="0" width="100%" height="100%" fill="url(#pattern_L1_1)"/></g><g fi:class="KUsePattern"><pattern id="pattern_L1_2" width="350" height="350" patternUnits="userSpaceOnUse"><use xlink:href="#L1_2" x="-350" y="-350"/><use xlink:href="#L1_2" x="0" y="-350"/><use xlink:href="#L1_2" x="350" y="-350"/><use xlink:href="#L1_2" x="-350" y="0"/><use xlink:href="#L1_2" x="0" y="0"/><use xlink:href="#L1_2" x="350" y="0"/><use xlink:href="#L1_2" x="-350" y="350"/><use xlink:href="#L1_2" x="0" y="350"/><use xlink:href="#L1_2" x="350" y="350"/></pattern><rect x="0" y="0" width="100%" height="100%" fill="url(#pattern_L1_2)"/></g><g fi:class="KUsePattern"><pattern id="pattern_L1_3" width="350" height="350" patternUnits="userSpaceOnUse"><use xlink:href="#L1_3" x="-350" y="-350"/><use xlink:href="#L1_3" x="0" y="-350"/><use xlink:href="#L1_3" x="350" y="-350"/><use xlink:href="#L1_3" x="-350" y="0"/><use xlink:href="#L1_3" x="0" y="0"/><use xlink:href="#L1_3" x="350" y="0"/><use xlink:href="#L1_3" x="-350" y="350"/><use xlink:href="#L1_3" x="0" y="350"/><use xlink:href="#L1_3" x="350" y="350"/></pattern><rect x="0" y="0" width="100%" height="100%" fill="url(#pattern_L1_3)"/></g><g fi:class="KUsePattern"><pattern id="pattern_L1_4" width="350" height="350" patternUnits="userSpaceOnUse"><use xlink:href="#L1_4" x="-350" y="-350"/><use xlink:href="#L1_4" x="0" y="-350"/><use xlink:href="#L1_4" x="350" y="-350"/><use xlink:href="#L1_4" x="-350" y="0"/><use xlink:href="#L1_4" x="0" y="0"/><use xlink:href="#L1_4" x="350" y="0"/><use xlink:href="#L1_4" x="-350" y="350"/><use xlink:href="#L1_4" x="0" y="350"/><use xlink:href="#L1_4" x="350" y="350"/></pattern><rect x="0" y="0" width="100%" height="100%" fill="url(#pattern_L1_4)"/></g><g fi:class="KUsePattern"><pattern id="pattern_L1_5" width="350" height="350" patternUnits="userSpaceOnUse"><use xlink:href="#L1_5" x="-350" y="-350"/><use xlink:href="#L1_5" x="0" y="-350"/><use xlink:href="#L1_5" x="350" y="-350"/><use xlink:href="#L1_5" x="-350" y="0"/><use xlink:href="#L1_5" x="0" y="0"/><use xlink:href="#L1_5" x="350" y="0"/><use xlink:href="#L1_5" x="-350" y="350"/><use xlink:href="#L1_5" x="0" y="350"/><use xlink:href="#L1_5" x="350" y="350"/></pattern><rect x="0" y="0" width="100%" height="100%" fill="url(#pattern_L1_5)"/></g><g fi:class="KUsePattern"><pattern id="pattern_L1_6" width="350" height="350" patternUnits="userSpaceOnUse"><use xlink:href="#L1_6" x="-350" y="-350"/><use xlink:href="#L1_6" x="0" y="-350"/><use xlink:href="#L1_6" x="350" y="-350"/><use xlink:href="#L1_6" x="-350" y="0"/><use xlink:href="#L1_6" x="0" y="0"/><use xlink:href="#L1_6" x="350" y="0"/><use xlink:href="#L1_6" x="-350" y="350"/><use xlink:href="#L1_6" x="0" y="350"/><use xlink:href="#L1_6" x="350" y="350"/></pattern><rect x="0" y="0" width="100%" height="100%" fill="url(#pattern_L1_6)"/></g><g fi:class="KUsePattern"><pattern id="pattern_L1_7" width="350" height="350" patternUnits="userSpaceOnUse"><use xlink:href="#L1_7" x="-350" y="-350"/><use xlink:href="#L1_7" x="0" y="-350"/><use xlink:href="#L1_7" x="350" y="-350"/><use xlink:href="#L1_7" x="-350" y="0"/><use xlink:href="#L1_7" x="0" y="0"/><use xlink:href="#L1_7" x="350" y="0"/><use xlink:href="#L1_7" x="-350" y="350"/><use xlink:href="#L1_7" x="0" y="350"/><use xlink:href="#L1_7" x="350" y="350"/></pattern><rect x="0" y="0" width="100%" height="100%" fill="url(#pattern_L1_7)"/></g><g fi:class="KUsePattern"><pattern id="pattern_L1_8" width="350" height="350" patternUnits="userSpaceOnUse"><use xlink:href="#L1_8" x="-350" y="-350"/><use xlink:href="#L1_8" x="0" y="-350"/><use xlink:href="#L1_8" x="350" y="-350"/><use xlink:href="#L1_8" x="-350" y="0"/><use xlink:href="#L1_8" x="0" y="0"/><use xlink:href="#L1_8" x="350" y="0"/><use xlink:href="#L1_8" x="-350" y="350"/><use xlink:href="#L1_8" x="0" y="350"/><use xlink:href="#L1_8" x="350" y="350"/></pattern><rect x="0" y="0" width="100%" height="100%" fill="url(#pattern_L1_8)"/></g><g fi:class="KUsePattern"><pattern id="pattern_L1_9" width="350" height="350" patternUnits="userSpaceOnUse"><use xlink:href="#L1_9" x="-350" y="-350"/><use xlink:href="#L1_9" x="0" y="-350"/><use xlink:href="#L1_9" x="350" y="-350"/><use xlink:href="#L1_9" x="-350" y="0"/><use xlink:href="#L1_9" x="0" y="0"/><use xlink:href="#L1_9" x="350" y="0"/><use xlink:href="#L1_9" x="-350" y="350"/><use xlink:href="#L1_9" x="0" y="350"/><use xlink:href="#L1_9" x="350" y="350"/></pattern><rect x="0" y="0" width="100%" height="100%" fill="url(#pattern_L1_9)"/></g><g fi:class="KUsePattern"><pattern id="pattern_L1_10" width="350" height="350" patternUnits="userSpaceOnUse"><use xlink:href="#L1_10" x="-350" y="-350"/><use xlink:href="#L1_10" x="0" y="-350"/><use xlink:href="#L1_10" x="350" y="-350"/><use xlink:href="#L1_10" x="-350" y="0"/><use xlink:href="#L1_10" x="0" y="0"/><use xlink:href="#L1_10" x="350" y="0"/><use xlink:href="#L1_10" x="-350" y="350"/><use xlink:href="#L1_10" x="0" y="350"/><use xlink:href="#L1_10" x="350" y="350"/></pattern><rect x="0" y="0" width="100%" height="100%" fill="url(#pattern_L1_10)"/></g><g fi:class="KUsePattern"><pattern id="pattern_L1_11" width="350" height="350" patternUnits="userSpaceOnUse"><use xlink:href="#L1_11" x="-350" y="-350"/><use xlink:href="#L1_11" x="0" y="-350"/><use xlink:href="#L1_11" x="350" y="-350"/><use xlink:href="#L1_11" x="-350" y="0"/><use xlink:href="#L1_11" x="0" y="0"/><use xlink:href="#L1_11" x="350" y="0"/><use xlink:href="#L1_11" x="-350" y="350"/><use xlink:href="#L1_11" x="0" y="350"/><use xlink:href="#L1_11" x="350" y="350"/></pattern><rect x="0" y="0" width="100%" height="100%" fill="url(#pattern_L1_11)"/></g><g fi:class="KUsePattern"><pattern id="pattern_L1_12" width="350" height="350" patternUnits="userSpaceOnUse"><use xlink:href="#L1_12" x="-350" y="-350"/><use xlink:href="#L1_12" x="0" y="-350"/><use xlink:href="#L1_12" x="350" y="-350"/><use xlink:href="#L1_12" x="-350" y="0"/><use xlink:href="#L1_12" x="0" y="0"/><use xlink:href="#L1_12" x="350" y="0"/><use xlink:href="#L1_12" x="-350" y="350"/><use xlink:href="#L1_12" x="0" y="350"/><use xlink:href="#L1_12" x="350" y="350"/></pattern><rect x="0" y="0" width="100%" height="100%" fill="url(#pattern_L1_12)"/></g><g fi:class="KUsePattern"><pattern id="pattern_L1_13" width="350" height="350" patternUnits="userSpaceOnUse"><use xlink:href="#L1_13" x="-350" y="-350"/><use xlink:href="#L1_13" x="0" y="-350"/><use xlink:href="#L1_13" x="350" y="-350"/><use xlink:href="#L1_13" x="-350" y="0"/><use xlink:href="#L1_13" x="0" y="0"/><use xlink:href="#L1_13" x="350" y="0"/><use xlink:href="#L1_13" x="-350" y="350"/><use xlink:href="#L1_13" x="0" y="350"/><use xlink:href="#L1_13" x="350" y="350"/></pattern><rect x="0" y="0" width="100%" height="100%" fill="url(#pattern_L1_13)"/></g><g fi:class="KUsePattern"><pattern id="pattern_L1_14" width="350" height="350" patternUnits="userSpaceOnUse"><use xlink:href="#L1_14" x="-350" y="-350"/><use xlink:href="#L1_14" x="0" y="-350"/><use xlink:href="#L1_14" x="350" y="-350"/><use xlink:href="#L1_14" x="-350" y="0"/><use xlink:href="#L1_14" x="0" y="0"/><use xlink:href="#L1_14" x="350" y="0"/><use xlink:href="#L1_14" x="-350" y="350"/><use xlink:href="#L1_14" x="0" y="350"/><use xlink:href="#L1_14" x="350" y="350"/></pattern><rect x="0" y="0" width="100%" height="100%" fill="url(#pattern_L1_14)"/></g><g fi:class="KUsePattern"><pattern id="pattern_L1_15" width="350" height="350" patternUnits="userSpaceOnUse"><use xlink:href="#L1_15" x="-350" y="-350"/><use xlink:href="#L1_15" x="0" y="-350"/><use xlink:href="#L1_15" x="350" y="-350"/><use xlink:href="#L1_15" x="-350" y="0"/><use xlink:href="#L1_15" x="0" y="0"/><use xlink:href="#L1_15" x="350" y="0"/><use xlink:href="#L1_15" x="-350" y="350"/><use xlink:href="#L1_15" x="0" y="350"/><use xlink:href="#L1_15" x="350" y="350"/></pattern><rect x="0" y="0" width="100%" height="100%" fill="url(#pattern_L1_15)"/></g><g fi:class="KUsePattern"><pattern id="pattern_L1_16" width="350" height="350" patternUnits="userSpaceOnUse"><use xlink:href="#L1_16" x="-350" y="-350"/><use xlink:href="#L1_16" x="0" y="-350"/><use xlink:href="#L1_16" x="350" y="-350"/><use xlink:href="#L1_16" x="-350" y="0"/><use xlink:href="#L1_16" x="0" y="0"/><use xlink:href="#L1_16" x="350" y="0"/><use xlink:href="#L1_16" x="-350" y="350"/><use xlink:href="#L1_16" x="0" y="350"/><use xlink:href="#L1_16" x="350" y="350"/></pattern><rect x="0" y="0" width="100%" height="100%" fill="url(#pattern_L1_16)"/></g><g fi:class="KUsePattern"><pattern id="pattern_L1_17" width="350" height="350" patternUnits="userSpaceOnUse"><use xlink:href="#L1_17" x="-350" y="-350"/><use xlink:href="#L1_17" x="0" y="-350"/><use xlink:href="#L1_17" x="350" y="-350"/><use xlink:href="#L1_17" x="-350" y="0"/><use xlink:href="#L1_17" x="0" y="0"/><use xlink:href="#L1_17" x="350" y="0"/><use xlink:href="#L1_17" x="-350" y="350"/><use xlink:href="#L1_17" x="0" y="350"/><use xlink:href="#L1_17" x="350" y="350"/></pattern><rect x="0" y="0" width="100%" height="100%" fill="url(#pattern_L1_17)"/></g><g fi:class="KUsePattern"><pattern id="pattern_L1_18" width="350" height="350" patternUnits="userSpaceOnUse"><use xlink:href="#L1_18" x="-350" y="-350"/><use xlink:href="#L1_18" x="0" y="-350"/><use xlink:href="#L1_18" x="350" y="-350"/><use xlink:href="#L1_18" x="-350" y="0"/><use xlink:href="#L1_18" x="0" y="0"/><use xlink:href="#L1_18" x="350" y="0"/><use xlink:href="#L1_18" x="-350" y="350"/><use xlink:href="#L1_18" x="0" y="350"/><use xlink:href="#L1_18" x="350" y="350"/></pattern><rect x="0" y="0" width="100%" height="100%" fill="url(#pattern_L1_18)"/></g><g fi:class="KUsePattern"><pattern id="pattern_L1_19" width="350" height="350" patternUnits="userSpaceOnUse"><use xlink:href="#L1_19" x="-350" y="-350"/><use xlink:href="#L1_19" x="0" y="-350"/><use xlink:href="#L1_19" x="350" y="-350"/><use xlink:href="#L1_19" x="-350" y="0"/><use xlink:href="#L1_19" x="0" y="0"/><use xlink:href="#L1_19" x="350" y="0"/><use xlink:href="#L1_19" x="-350" y="350"/><use xlink:href="#L1_19" x="0" y="350"/><use xlink:href="#L1_19" x="350" y="350"/></pattern><rect x="0" y="0" width="100%" height="100%" fill="url(#pattern_L1_19)"/></g><g fi:class="KUsePattern"><pattern id="pattern_L1_20" width="350" height="350" patternUnits="userSpaceOnUse"><use xlink:href="#L1_20" x="-350" y="-350"/><use xlink:href="#L1_20" x="0" y="-350"/><use xlink:href="#L1_20" x="350" y="-350"/><use xlink:href="#L1_20" x="-350" y="0"/><use xlink:href="#L1_20" x="0" y="0"/><use xlink:href="#L1_20" x="350" y="0"/><use xlink:href="#L1_20" x="-350" y="350"/><use xlink:href="#L1_20" x="0" y="350"/><use xlink:href="#L1_20" x="350" y="350"/></pattern><rect x="0" y="0" width="100%" height="100%" fill="url(#pattern_L1_20)"/></g><g fi:class="KUsePattern"><pattern id="pattern_L1_21" width="350" height="350" patternUnits="userSpaceOnUse"><use xlink:href="#L1_21" x="-350" y="-350"/><use xlink:href="#L1_21" x="0" y="-350"/><use xlink:href="#L1_21" x="350" y="-350"/><use xlink:href="#L1_21" x="-350" y="0"/><use xlink:href="#L1_21" x="0" y="0"/><use xlink:href="#L1_21" x="350" y="0"/><use xlink:href="#L1_21" x="-350" y="350"/><use xlink:href="#L1_21" x="0" y="350"/><use xlink:href="#L1_21" x="350" y="350"/></pattern><rect x="0" y="0" width="100%" height="100%" fill="url(#pattern_L1_21)"/></g><g fi:class="KUsePattern"><pattern id="pattern_L1_22" width="350" height="350" patternUnits="userSpaceOnUse"><use xlink:href="#L1_22" x="-350" y="-350"/><use xlink:href="#L1_22" x="0" y="-350"/><use xlink:href="#L1_22" x="350" y="-350"/><use xlink:href="#L1_22" x="-350" y="0"/><use xlink:href="#L1_22" x="0" y="0"/><use xlink:href="#L1_22" x="350" y="0"/><use xlink:href="#L1_22" x="-350" y="350"/><use xlink:href="#L1_22" x="0" y="350"/><use xlink:href="#L1_22" x="350" y="350"/></pattern><rect x="0" y="0" width="100%" height="100%" fill="url(#pattern_L1_22)"/></g><g fi:class="KUsePattern"><pattern id="pattern_L1_23" width="350" height="350" patternUnits="userSpaceOnUse"><use xlink:href="#L1_23" x="-350" y="-350"/><use xlink:href="#L1_23" x="0" y="-350"/><use xlink:href="#L1_23" x="350" y="-350"/><use xlink:href="#L1_23" x="-350" y="0"/><use xlink:href="#L1_23" x="0" y="0"/><use xlink:href="#L1_23" x="350" y="0"/><use xlink:href="#L1_23" x="-350" y="350"/><use xlink:href="#L1_23" x="0" y="350"/><use xlink:href="#L1_23" x="350" y="350"/></pattern><rect x="0" y="0" width="100%" height="100%" fill="url(#pattern_L1_23)"/></g></svg>